Nobel-Condensed_Extra_Light.ufo
<glyph name="exclam" format="1">
  <advance width="159"/>
  <unicode hex="0021"/>
  <outline>
    <contour>
      <point x="89" y="235" type="line"/>
      <point x="85" y="103" type="line"/>
      <point x="74" y="103" type="line"/>
      <point x="70" y="235" type="line"/>
      <point x="70" y="730" type="line"/>
      <point x="89" y="730" type="line"/>
    </contour>
    <contour>
      <point x="93" y="0" type="line"/>
      <point x="66" y="0" type="line"/>
      <point x="66" y="56" type="line"/>
      <point x="93" y="56" type="line"/>
    </contour>
  </outline>
</glyph>
<glyph name="quotedbl" format="1">
  <advance width="192"/>
  <unicode hex="0022"/>
  <outline>
    <contour>
      <point x="147" y="671" type="line"/>
      <point x="142" y="588" type="line"/>
      <point x="136" y="588" type="line"/>
      <point x="128" y="671" type="line"/>
      <point x="128" y="730" type="line"/>
      <point x="147" y="730" type="line"/>
    </contour>
    <contour>
      <point x="64" y="671" type="line"/>
      <point x="59" y="588" type="line"/>
      <point x="52" y="588" type="line"/>
      <point x="45" y="671" type="line"/>
      <point x="45" y="730" type="line"/>
      <point x="64" y="730" type="line"/>
    </contour>
  </outline>
</glyph>
<glyph name="numbersign" format="1">
  <advance width="510"/>
  <unicode hex="0023"/>
  <outline>
    <contour>
      <point x="475" y="497" type="line"/>
      <point x="475" y="478" type="line"/>
      <point x="373" y="478" type="line"/>
      <point x="352" y="252" type="line"/>
      <point x="463" y="252" type="line"/>
      <point x="463" y="233" type="line"/>
      <point x="351" y="233" type="line"/>
      <point x="330" y="0" type="line"/>
      <point x="311" y="0" type="line"/>
      <point x="332" y="233" type="line"/>
      <point x="156" y="233" type="line"/>
      <point x="135" y="0" type="line"/>
      <point x="116" y="0" type="line"/>
      <point x="137" y="233" type="line"/>
      <point x="35" y="233" type="line"/>
      <point x="35" y="252" type="line"/>
      <point x="138" y="252" type="line"/>
      <point x="158" y="478" type="line"/>
      <point x="47" y="478" type="line"/>
      <point x="47" y="497" type="line"/>
      <point x="160" y="497" type="line"/>
      <point x="180" y="730" type="line"/>
      <point x="199" y="730" type="line"/>
      <point x="179" y="497" type="line"/>
      <point x="355" y="497" type="line"/>
      <point x="375" y="730" type="line"/>
      <point x="394" y="730" type="line"/>
      <point x="374" y="497" type="line"/>
    </contour>
    <contour>
      <point x="354" y="478" type="line"/>
      <point x="177" y="478" type="line"/>
      <point x="157" y="252" type="line"/>
      <point x="333" y="252" type="line"/>
    </contour>
  </outline>
</glyph>
<glyph name="dollar" format="1">
  <advance width="328"/>
  <unicode hex="0024"/>
  <outline>
    <contour>
      <point x="293" y="146" type="curve" smooth="yes"/>
      <point x="293" y="73"/>
      <point x="242" y="3"/>
      <point x="170" y="-3" type="curve"/>
      <point x="170" y="-69" type="line"/>
      <point x="152" y="-69" type="line"/>
      <point x="152" y="-3" type="line"/>
      <point x="105" y="-1"/>
      <point x="64" y="25"/>
      <point x="29" y="72" type="curve"/>
      <point x="42" y="85" type="line"/>
      <point x="80" y="33"/>
      <point x="111" y="12"/>
      <point x="161" y="12" type="curve" smooth="yes"/>
      <point x="227" y="12"/>
      <point x="275" y="78"/>
      <point x="275" y="146" type="curve" smooth="yes"/>
      <point x="275" y="213"/>
      <point x="253" y="271"/>
      <point x="158" y="380" type="curve" smooth="yes"/>
      <point x="63" y="489"/>
      <point x="42" y="539"/>
      <point x="42" y="597" type="curve" smooth="yes"/>
      <point x="42" y="674"/>
      <point x="96" y="725"/>
      <point x="152" y="731" type="curve"/>
      <point x="152" y="775" type="line"/>
      <point x="170" y="775" type="line"/>
      <point x="170" y="731" type="line"/>
      <point x="225" y="726"/>
      <point x="252" y="695"/>
      <point x="275" y="665" type="curve"/>
      <point x="261" y="654" type="line"/>
      <point x="237" y="687"/>
      <point x="211" y="714"/>
      <point x="162" y="714" type="curve" smooth="yes"/>
      <point x="107" y="714"/>
      <point x="60" y="666"/>
      <point x="60" y="599" type="curve" smooth="yes"/>
      <point x="60" y="545"/>
      <point x="82" y="493"/>
      <point x="170" y="393" type="curve" smooth="yes"/>
      <point x="276" y="272"/>
      <point x="293" y="221"/>
    </contour>
  </outline>
</glyph>
<glyph name="percent" format="1">
  <advance width="597"/>
  <unicode hex="0025"/>
  <outline>
    <contour>
      <point x="164" y="365" type="curve" smooth="yes"/>
      <point x="105" y="365"/>
      <point x="45" y="420"/>
      <point x="45" y="554" type="curve" smooth="yes"/>
      <point x="45" y="688"/>
      <point x="105" y="743"/>
      <point x="164" y="743" type="curve" smooth="yes"/>
      <point x="223" y="743"/>
      <point x="283" y="688"/>
      <point x="283" y="554" type="curve" smooth="yes"/>
      <point x="283" y="420"/>
      <point x="223" y="365"/>
    </contour>
    <contour>
      <point x="475" y="730" type="line"/>
      <point x="144" y="0" type="line"/>
      <point x="125" y="0" type="line"/>
      <point x="456" y="730" type="line"/>
    </contour>
    <contour>
      <point x="433" y="-11" type="curve" smooth="yes"/>
      <point x="374" y="-11"/>
      <point x="314" y="44"/>
      <point x="314" y="178" type="curve" smooth="yes"/>
      <point x="314" y="312"/>
      <point x="374" y="367"/>
      <point x="433" y="367" type="curve" smooth="yes"/>
      <point x="492" y="367"/>
      <point x="552" y="312"/>
      <point x="552" y="178" type="curve" smooth="yes"/>
      <point x="552" y="44"/>
      <point x="492" y="-11"/>
    </contour>
    <contour>
      <point x="164" y="726" type="curve" smooth="yes"/>
      <point x="114" y="726"/>
      <point x="62" y="678"/>
      <point x="62" y="554" type="curve" smooth="yes"/>
      <point x="62" y="430"/>
      <point x="114" y="382"/>
      <point x="164" y="382" type="curve" smooth="yes"/>
      <point x="214" y="382"/>
      <point x="266" y="429"/>
      <point x="266" y="554" type="curve" smooth="yes"/>
      <point x="266" y="679"/>
      <point x="214" y="726"/>
    </contour>
    <contour>
      <point x="433" y="350" type="curve" smooth="yes"/>
      <point x="383" y="350"/>
      <point x="331" y="302"/>
      <point x="331" y="178" type="curve" smooth="yes"/>
      <point x="331" y="54"/>
      <point x="383" y="6"/>
      <point x="433" y="6" type="curve" smooth="yes"/>
      <point x="483" y="6"/>
      <point x="535" y="53"/>
      <point x="535" y="178" type="curve" smooth="yes"/>
      <point x="535" y="303"/>
      <point x="483" y="350"/>
    </contour>
  </outline>
</glyph>
<glyph name="ampersand" format="1">
  <advance width="385"/>
  <unicode hex="0026"/>
  <outline>
    <contour>
      <point x="139" y="395" type="curve"/>
      <point x="91" y="475"/>
      <point x="58" y="530"/>
      <point x="58" y="610" type="curve" smooth="yes"/>
      <point x="58" y="685"/>
      <point x="93" y="742"/>
      <point x="157" y="742" type="curve" smooth="yes"/>
      <point x="220" y="742"/>
      <point x="250" y="686"/>
      <point x="250" y="611" type="curve" smooth="yes"/>
      <point x="250" y="535"/>
      <point x="205" y="460"/>
      <point x="159" y="393" type="curve"/>
      <point x="193" y="335"/>
      <point x="251" y="233"/>
      <point x="301" y="146" type="curve"/>
      <point x="315" y="176"/>
      <point x="329" y="211"/>
      <point x="341" y="250" type="curve"/>
      <point x="356" y="246" type="line"/>
      <point x="344" y="205"/>
      <point x="329" y="165"/>
      <point x="311" y="129" type="curve"/>
      <point x="352" y="57"/>
      <point x="385" y="0"/>
      <point x="385" y="0" type="curve"/>
      <point x="364" y="0" type="line"/>
      <point x="301" y="110" type="line"/>
      <point x="262" y="39"/>
      <point x="210" y="-12"/>
      <point x="147" y="-12" type="curve" smooth="yes"/>
      <point x="67" y="-12"/>
      <point x="20" y="54"/>
      <point x="20" y="141" type="curve" smooth="yes"/>
      <point x="20" y="233"/>
      <point x="83" y="311"/>
    </contour>
    <contour>
      <point x="151" y="410" type="curve"/>
      <point x="193" y="471"/>
      <point x="233" y="542"/>
      <point x="233" y="611" type="curve" smooth="yes"/>
      <point x="233" y="671"/>
      <point x="210" y="725"/>
      <point x="157" y="725" type="curve" smooth="yes"/>
      <point x="100" y="725"/>
      <point x="75" y="670"/>
      <point x="75" y="610" type="curve" smooth="yes"/>
      <point x="75" y="544"/>
      <point x="105" y="486"/>
    </contour>
    <contour>
      <point x="292" y="127" type="curve"/>
      <point x="148" y="378" type="line"/>
      <point x="94" y="300"/>
      <point x="38" y="230"/>
      <point x="38" y="141" type="curve" smooth="yes"/>
      <point x="38" y="62"/>
      <point x="78" y="5"/>
      <point x="147" y="5" type="curve" smooth="yes"/>
      <point x="205" y="5"/>
      <point x="251" y="50"/>
    </contour>
  </outline>
</glyph>
<glyph name="quotesingle" format="1">
  <advance width="109"/>
  <unicode hex="0027"/>
  <outline>
    <contour>
      <point x="64" y="671" type="line"/>
      <point x="59" y="588" type="line"/>
      <point x="52" y="588" type="line"/>
      <point x="45" y="671" type="line"/>
      <point x="45" y="730" type="line"/>
      <point x="64" y="730" type="line"/>
    </contour>
  </outline>
</glyph>
<glyph name="parenleft" format="1">
  <advance width="235"/>
  <unicode hex="0028"/>
  <outline>
    <contour>
      <point x="219" y="-202" type="line"/>
      <point x="102" y="-74"/>
      <point x="45" y="75"/>
      <point x="45" y="290" type="curve" smooth="yes"/>
      <point x="45" y="505"/>
      <point x="102" y="662"/>
      <point x="219" y="790" type="curve"/>
      <point x="219" y="767" type="line"/>
      <point x="119" y="642"/>
      <point x="64" y="504"/>
      <point x="64" y="290" type="curve" smooth="yes"/>
      <point x="64" y="76"/>
      <point x="119" y="-54"/>
      <point x="219" y="-179" type="curve"/>
    </contour>
  </outline>
</glyph>
<glyph name="parenright" format="1">
  <advance width="235"/>
  <unicode hex="0029"/>
  <outline>
    <contour>
      <point x="14" y="-202" type="curve"/>
      <point x="14" y="-179" type="line"/>
      <point x="114" y="-54"/>
      <point x="169" y="76"/>
      <point x="169" y="290" type="curve" smooth="yes"/>
      <point x="169" y="504"/>
      <point x="114" y="642"/>
      <point x="14" y="767" type="curve"/>
      <point x="14" y="790" type="line"/>
      <point x="131" y="662"/>
      <point x="188" y="505"/>
      <point x="188" y="290" type="curve" smooth="yes"/>
      <point x="188" y="75"/>
      <point x="131" y="-74"/>
    </contour>
  </outline>
</glyph>
<glyph name="asterisk" format="1">
  <advance width="333"/>
  <unicode hex="002A"/>
  <outline>
    <contour>
      <point x="297" y="627" type="line"/>
      <point x="178" y="592" type="line"/>
      <point x="255" y="494" type="line"/>
      <point x="237" y="482" type="line"/>
      <point x="166" y="582" type="line"/>
      <point x="97" y="482" type="line"/>
      <point x="79" y="495" type="line"/>
      <point x="155" y="592" type="line"/>
      <point x="36" y="627" type="line"/>
      <point x="45" y="648" type="line"/>
      <point x="159" y="606" type="line"/>
      <point x="154" y="730" type="line"/>
      <point x="180" y="730" type="line"/>
      <point x="174" y="606" type="line"/>
      <point x="288" y="648" type="line"/>
    </contour>
  </outline>
</glyph>
<glyph name="plus" format="1">
  <advance width="463"/>
  <unicode hex="002B"/>
  <outline>
    <contour>
      <point x="427" y="320" type="line"/>
      <point x="241" y="320" type="line"/>
      <point x="241" y="124" type="line"/>
      <point x="222" y="124" type="line"/>
      <point x="222" y="320" type="line"/>
      <point x="36" y="320" type="line"/>
      <point x="36" y="339" type="line"/>
      <point x="222" y="339" type="line"/>
      <point x="222" y="535" type="line"/>
      <point x="241" y="535" type="line"/>
      <point x="241" y="339" type="line"/>
      <point x="427" y="339" type="line"/>
    </contour>
  </outline>
</glyph>
<glyph name="comma" format="1">
  <advance width="109"/>
  <unicode hex="002C"/>
  <outline>
    <contour>
      <point x="64" y="44" type="line" smooth="yes"/>
      <point x="64" y="-11"/>
      <point x="51" y="-44"/>
      <point x="36" y="-71" type="curve"/>
      <point x="19" y="-71" type="line"/>
      <point x="38" y="-41"/>
      <point x="45" y="-7"/>
      <point x="45" y="39" type="curve" smooth="yes"/>
      <point x="45" y="57" type="line"/>
      <point x="64" y="57" type="line"/>
    </contour>
  </outline>
</glyph>
<glyph name="hyphen" format="1">
  <advance width="182"/>
  <unicode hex="002D"/>
  <unicode hex="2010"/>
  <unicode hex="2011"/>
  <outline>
    <contour>
      <point x="155" y="221" type="line"/>
      <point x="27" y="221" type="line"/>
      <point x="27" y="241" type="line"/>
      <point x="155" y="241" type="line"/>
    </contour>
  </outline>
</glyph>
<glyph name="period" format="1">
  <advance width="109"/>
  <unicode hex="002E"/>
  <outline>
    <contour>
      <point x="64" y="0" type="line"/>
      <point x="45" y="0" type="line"/>
      <point x="45" y="60" type="line"/>
      <point x="64" y="60" type="line"/>
    </contour>
  </outline>
</glyph>
<glyph name="zero" format="1">
  <advance width="402"/>
  <unicode hex="0030"/>
  <outline>
    <contour>
      <point x="364" y="363" type="curve" smooth="yes"/>
      <point x="364" y="136"/>
      <point x="313" y="-12"/>
      <point x="201" y="-12" type="curve" smooth="yes"/>
      <point x="89" y="-12"/>
      <point x="38" y="136"/>
      <point x="38" y="363" type="curve" smooth="yes"/>
      <point x="38" y="593"/>
      <point x="89" y="742"/>
      <point x="201" y="742" type="curve" smooth="yes"/>
      <point x="313" y="742"/>
      <point x="364" y="593"/>
    </contour>
    <contour>
      <point x="346" y="363" type="curve" smooth="yes"/>
      <point x="346" y="576"/>
      <point x="304" y="725"/>
      <point x="201" y="725" type="curve" smooth="yes"/>
      <point x="98" y="725"/>
      <point x="56" y="576"/>
      <point x="56" y="363" type="curve" smooth="yes"/>
      <point x="56" y="154"/>
      <point x="98" y="5"/>
      <point x="201" y="5" type="curve" smooth="yes"/>
      <point x="304" y="5"/>
      <point x="346" y="154"/>
    </contour>
  </outline>
</glyph>
<glyph name="one" format="1">
  <advance width="159"/>
  <unicode hex="0031"/>
  <outline>
    <contour>
      <point x="91" y="0" type="line"/>
      <point x="73" y="0" type="line"/>
      <point x="73" y="667" type="line"/>
      <point x="63" y="638"/>
      <point x="50" y="612"/>
      <point x="19" y="590" type="curve"/>
      <point x="19" y="609" type="line"/>
      <point x="43" y="624"/>
      <point x="66" y="680"/>
      <point x="75" y="730" type="curve"/>
      <point x="91" y="730" type="line"/>
    </contour>
  </outline>
</glyph>
<glyph name="two" format="1">
  <advance width="322"/>
  <unicode hex="0032"/>
  <outline>
    <contour>
      <point x="289" y="0" type="line"/>
      <point x="26" y="0" type="line"/>
      <point x="227" y="439" type="line" smooth="yes"/>
      <point x="248" y="485"/>
      <point x="270" y="539"/>
      <point x="270" y="609" type="curve" smooth="yes"/>
      <point x="270" y="659"/>
      <point x="242" y="726"/>
      <point x="163" y="726" type="curve" smooth="yes"/>
      <point x="88" y="726"/>
      <point x="53" y="674"/>
      <point x="53" y="613" type="curve" smooth="yes"/>
      <point x="53" y="594" type="line"/>
      <point x="35" y="594" type="line"/>
      <point x="35" y="613" type="line" smooth="yes"/>
      <point x="35" y="672"/>
      <point x="70" y="742"/>
      <point x="163" y="742" type="curve" smooth="yes"/>
      <point x="264" y="742"/>
      <point x="288" y="656"/>
      <point x="288" y="611" type="curve" smooth="yes"/>
      <point x="288" y="562"/>
      <point x="280" y="513"/>
      <point x="254" y="457" type="curve" smooth="yes"/>
      <point x="54" y="18" type="line"/>
      <point x="289" y="18" type="line"/>
    </contour>
  </outline>
</glyph>
<glyph name="three" format="1">
  <advance width="314"/>
  <unicode hex="0033"/>
  <outline>
    <contour>
      <point x="93" y="374" type="curve"/>
      <point x="93" y="391" type="line"/>
      <point x="102" y="391" type="line" smooth="yes"/>
      <point x="194" y="391"/>
      <point x="244" y="470"/>
      <point x="244" y="575" type="curve" smooth="yes"/>
      <point x="244" y="675"/>
      <point x="194" y="724"/>
      <point x="137" y="724" type="curve" smooth="yes"/>
      <point x="90" y="724"/>
      <point x="57" y="702"/>
      <point x="32" y="646" type="curve"/>
      <point x="16" y="654" type="line"/>
      <point x="43" y="717"/>
      <point x="88" y="742"/>
      <point x="137" y="742" type="curve" smooth="yes"/>
      <point x="203" y="742"/>
      <point x="263" y="686"/>
      <point x="263" y="576" type="curve" smooth="yes"/>
      <point x="263" y="473"/>
      <point x="219" y="404"/>
      <point x="148" y="383" type="curve"/>
      <point x="237" y="363"/>
      <point x="282" y="289"/>
      <point x="282" y="177" type="curve" smooth="yes"/>
      <point x="282" y="49"/>
      <point x="206" y="-4"/>
      <point x="139" y="-4" type="curve" smooth="yes"/>
      <point x="95" y="-4"/>
      <point x="60" y="10"/>
      <point x="13" y="52" type="curve"/>
      <point x="25" y="67" type="line"/>
      <point x="67" y="26"/>
      <point x="104" y="14"/>
      <point x="141" y="14" type="curve" smooth="yes"/>
      <point x="199" y="14"/>
      <point x="263" y="61"/>
      <point x="263" y="178" type="curve" smooth="yes"/>
      <point x="263" y="272"/>
      <point x="227" y="374"/>
    </contour>
  </outline>
</glyph>
<glyph name="four" format="1">
  <advance width="338"/>
  <unicode hex="0034"/>
  <outline>
    <contour>
      <point x="316" y="206" type="line"/>
      <point x="253" y="206" type="line"/>
      <point x="253" y="2" type="line"/>
      <point x="235" y="2" type="line"/>
      <point x="235" y="206" type="line"/>
      <point x="11" y="206" type="line"/>
      <point x="11" y="217" type="line"/>
      <point x="243" y="730" type="line"/>
      <point x="253" y="730" type="line"/>
      <point x="253" y="224" type="line"/>
      <point x="316" y="224" type="line"/>
    </contour>
    <contour>
      <point x="235" y="224" type="line"/>
      <point x="235" y="670" type="line"/>
      <point x="33" y="224" type="line"/>
    </contour>
  </outline>
</glyph>
<glyph name="five" format="1">
  <advance width="319"/>
  <unicode hex="0035"/>
  <outline>
    <contour>
      <point x="290" y="239" type="curve" smooth="yes"/>
      <point x="290" y="78"/>
      <point x="227" y="-4"/>
      <point x="150" y="-4" type="curve" smooth="yes"/>
      <point x="98" y="-4"/>
      <point x="66" y="20"/>
      <point x="34" y="61" type="curve"/>
      <point x="48" y="73" type="line"/>
      <point x="82" y="28"/>
      <point x="113" y="12"/>
      <point x="152" y="12" type="curve" smooth="yes"/>
      <point x="221" y="12"/>
      <point x="272" y="92"/>
      <point x="272" y="242" type="curve" smooth="yes"/>
      <point x="272" y="389"/>
      <point x="233" y="455"/>
      <point x="161" y="455" type="curve" smooth="yes"/>
      <point x="111" y="455"/>
      <point x="78" y="419"/>
      <point x="58" y="352" type="curve"/>
      <point x="44" y="355" type="line"/>
      <point x="54" y="730" type="line"/>
      <point x="261" y="730" type="line"/>
      <point x="261" y="712" type="line"/>
      <point x="70" y="712" type="line"/>
      <point x="63" y="407" type="line"/>
      <point x="92" y="453"/>
      <point x="119" y="471"/>
      <point x="159" y="471" type="curve" smooth="yes"/>
      <point x="248" y="471"/>
      <point x="290" y="395"/>
    </contour>
  </outline>
</glyph>
<glyph name="six" format="1">
  <advance width="335"/>
  <unicode hex="0036"/>
  <outline>
    <contour>
      <point x="306" y="220" type="curve" smooth="yes"/>
      <point x="306" y="80"/>
      <point x="253" y="-12"/>
      <point x="173" y="-12" type="curve" smooth="yes"/>
      <point x="82" y="-12"/>
      <point x="37" y="85"/>
      <point x="37" y="235" type="curve" smooth="yes"/>
      <point x="37" y="300"/>
      <point x="57" y="393"/>
      <point x="74" y="450" type="curve" smooth="yes"/>
      <point x="159" y="730" type="line"/>
      <point x="178" y="730" type="line"/>
      <point x="178" y="730"/>
      <point x="80" y="412"/>
      <point x="66" y="361" type="curve"/>
      <point x="87" y="413"/>
      <point x="123" y="445"/>
      <point x="171" y="445" type="curve" smooth="yes"/>
      <point x="263" y="445"/>
      <point x="306" y="346"/>
    </contour>
    <contour>
      <point x="289" y="218" type="curve" smooth="yes"/>
      <point x="289" y="322"/>
      <point x="260" y="428"/>
      <point x="171" y="428" type="curve" smooth="yes"/>
      <point x="100" y="428"/>
      <point x="54" y="346"/>
      <point x="54" y="225" type="curve" smooth="yes"/>
      <point x="54" y="84"/>
      <point x="102" y="5"/>
      <point x="173" y="5" type="curve" smooth="yes"/>
      <point x="244" y="5"/>
      <point x="289" y="93"/>
    </contour>
  </outline>
</glyph>
<glyph name="seven" format="1">
  <advance width="291"/>
  <unicode hex="0037"/>
  <outline>
    <contour>
      <point x="265" y="730" type="line"/>
      <point x="82" y="0" type="line"/>
      <point x="64" y="0" type="line"/>
      <point x="242" y="712" type="line"/>
      <point x="21" y="712" type="line"/>
      <point x="21" y="730" type="line"/>
    </contour>
  </outline>
</glyph>
<glyph name="eight" format="1">
  <advance width="336"/>
  <unicode hex="0038"/>
  <outline>
    <contour>
      <point x="306" y="189" type="curve" smooth="yes"/>
      <point x="306" y="69"/>
      <point x="258" y="-12"/>
      <point x="168" y="-12" type="curve" smooth="yes"/>
      <point x="79" y="-12"/>
      <point x="30" y="67"/>
      <point x="30" y="189" type="curve" smooth="yes"/>
      <point x="30" y="291"/>
      <point x="77" y="363"/>
      <point x="130" y="383" type="curve"/>
      <point x="84" y="401"/>
      <point x="54" y="459"/>
      <point x="54" y="556" type="curve" smooth="yes"/>
      <point x="54" y="664"/>
      <point x="93" y="742"/>
      <point x="168" y="742" type="curve" smooth="yes"/>
      <point x="243" y="742"/>
      <point x="282" y="664"/>
      <point x="282" y="556" type="curve" smooth="yes"/>
      <point x="282" y="459"/>
      <point x="249" y="395"/>
      <point x="206" y="383" type="curve"/>
      <point x="252" y="374"/>
      <point x="306" y="291"/>
    </contour>
    <contour>
      <point x="265" y="556" type="curve" smooth="yes"/>
      <point x="265" y="645"/>
      <point x="241" y="726"/>
      <point x="168" y="726" type="curve" smooth="yes"/>
      <point x="95" y="726"/>
      <point x="71" y="641"/>
      <point x="71" y="556" type="curve" smooth="yes"/>
      <point x="71" y="473"/>
      <point x="93" y="391"/>
      <point x="170" y="391" type="curve" smooth="yes"/>
      <point x="245" y="391"/>
      <point x="265" y="473"/>
    </contour>
    <contour>
      <point x="289" y="184" type="curve" smooth="yes"/>
      <point x="289" y="279"/>
      <point x="246" y="376"/>
      <point x="168" y="376" type="curve" smooth="yes"/>
      <point x="90" y="376"/>
      <point x="47" y="281"/>
      <point x="47" y="184" type="curve" smooth="yes"/>
      <point x="47" y="90"/>
      <point x="80" y="4"/>
      <point x="168" y="4" type="curve" smooth="yes"/>
      <point x="254" y="4"/>
      <point x="289" y="90"/>
    </contour>
  </outline>
</glyph>
<glyph name="nine" format="1">
  <advance width="336"/>
  <unicode hex="0039"/>
  <outline>
    <contour>
      <point x="33" y="510" type="curve" smooth="yes"/>
      <point x="33" y="651"/>
      <point x="86" y="742"/>
      <point x="166" y="742" type="curve" smooth="yes"/>
      <point x="254" y="742"/>
      <point x="302" y="652"/>
      <point x="302" y="495" type="curve" smooth="yes"/>
      <point x="302" y="430"/>
      <point x="283" y="337"/>
      <point x="265" y="280" type="curve" smooth="yes"/>
      <point x="175" y="-4" type="line"/>
      <point x="158" y="2" type="line"/>
      <point x="269" y="354" type="line"/>
      <point x="250" y="315"/>
      <point x="217" y="285"/>
      <point x="170" y="285" type="curve" smooth="yes"/>
      <point x="77" y="285"/>
      <point x="33" y="381"/>
    </contour>
    <contour>
      <point x="50" y="512" type="curve" smooth="yes"/>
      <point x="50" y="408"/>
      <point x="79" y="302"/>
      <point x="169" y="302" type="curve" smooth="yes"/>
      <point x="253" y="302"/>
      <point x="285" y="409"/>
      <point x="285" y="505" type="curve" smooth="yes"/>
      <point x="285" y="641"/>
      <point x="242" y="725"/>
      <point x="165" y="725" type="curve" smooth="yes"/>
      <point x="93" y="725"/>
      <point x="50" y="633"/>
    </contour>
  </outline>
</glyph>
<glyph name="colon" format="1">
  <advance width="107"/>
  <unicode hex="003A"/>
  <outline>
    <contour>
      <point x="64" y="336" type="line"/>
      <point x="45" y="336" type="line"/>
      <point x="45" y="396" type="line"/>
      <point x="64" y="396" type="line"/>
    </contour>
    <contour>
      <point x="64" y="0" type="line"/>
      <point x="45" y="0" type="line"/>
      <point x="45" y="60" type="line"/>
      <point x="64" y="60" type="line"/>
    </contour>
  </outline>
</glyph>
<glyph name="semicolon" format="1">
  <advance width="107"/>
  <unicode hex="003B"/>
  <outline>
    <contour>
      <point x="64" y="336" type="line"/>
      <point x="45" y="336" type="line"/>
      <point x="45" y="396" type="line"/>
      <point x="64" y="396" type="line"/>
    </contour>
    <contour>
      <point x="64" y="44" type="line" smooth="yes"/>
      <point x="64" y="-11"/>
      <point x="51" y="-44"/>
      <point x="36" y="-71" type="curve"/>
      <point x="19" y="-71" type="line"/>
      <point x="38" y="-41"/>
      <point x="45" y="-7"/>
      <point x="45" y="39" type="curve" smooth="yes"/>
      <point x="45" y="60" type="line"/>
      <point x="64" y="60" type="line"/>
    </contour>
  </outline>
</glyph>
<glyph name="less" format="1">
  <advance width="373"/>
  <unicode hex="003C"/>
  <outline>
    <contour>
      <point x="41" y="325" type="line"/>
      <point x="331" y="540" type="line"/>
      <point x="331" y="519" type="line"/>
      <point x="68" y="325" type="line"/>
      <point x="331" y="128" type="line"/>
      <point x="331" y="107" type="line"/>
    </contour>
  </outline>
</glyph>
<glyph name="equal" format="1">
  <advance width="455"/>
  <unicode hex="003D"/>
  <outline>
    <contour>
      <point x="415" y="392" type="line"/>
      <point x="40" y="392" type="line"/>
      <point x="40" y="411" type="line"/>
      <point x="415" y="411" type="line"/>
    </contour>
    <contour>
      <point x="415" y="249" type="line"/>
      <point x="40" y="249" type="line"/>
      <point x="40" y="268" type="line"/>
      <point x="415" y="268" type="line"/>
    </contour>
  </outline>
</glyph>
<glyph name="greater" format="1">
  <advance width="373"/>
  <unicode hex="003E"/>
  <outline>
    <contour>
      <point x="332" y="325" type="line"/>
      <point x="42" y="107" type="line"/>
      <point x="42" y="128" type="line"/>
      <point x="305" y="325" type="line"/>
      <point x="42" y="519" type="line"/>
      <point x="42" y="540" type="line"/>
    </contour>
  </outline>
</glyph>
<glyph name="question" format="1">
  <advance width="283"/>
  <unicode hex="003F"/>
  <outline>
    <contour>
      <point x="252" y="608" type="curve" smooth="yes"/>
      <point x="252" y="560"/>
      <point x="234" y="505"/>
      <point x="197" y="426" type="curve" smooth="yes"/>
      <point x="171" y="372"/>
      <point x="148" y="296"/>
      <point x="148" y="212" type="curve" smooth="yes"/>
      <point x="148" y="112" type="line"/>
      <point x="129" y="112" type="line"/>
      <point x="129" y="198" type="line" smooth="yes"/>
      <point x="129" y="275"/>
      <point x="146" y="361"/>
      <point x="172" y="416" type="curve" smooth="yes"/>
      <point x="216" y="510"/>
      <point x="233" y="565"/>
      <point x="233" y="608" type="curve" smooth="yes"/>
      <point x="233" y="680"/>
      <point x="191" y="724"/>
      <point x="145" y="724" type="curve" smooth="yes"/>
      <point x="98" y="724"/>
      <point x="64" y="693"/>
      <point x="49" y="634" type="curve"/>
      <point x="30" y="634" type="line"/>
      <point x="46" y="701"/>
      <point x="84" y="742"/>
      <point x="145" y="742" type="curve" smooth="yes"/>
      <point x="209" y="742"/>
      <point x="252" y="684"/>
    </contour>
    <contour>
      <point x="152" y="0" type="line"/>
      <point x="125" y="0" type="line"/>
      <point x="125" y="60" type="line"/>
      <point x="152" y="60" type="line"/>
    </contour>
  </outline>
</glyph>
<glyph name="at" format="1">
  <advance width="848"/>
  <unicode hex="0040"/>
  <outline>
    <contour>
      <point x="553" y="238" type="curve"/>
      <point x="512" y="200"/>
      <point x="464" y="172"/>
      <point x="393" y="172" type="curve" smooth="yes"/>
      <point x="322" y="172"/>
      <point x="259" y="206"/>
      <point x="259" y="289" type="curve" smooth="yes"/>
      <point x="259" y="383"/>
      <point x="340" y="425"/>
      <point x="457" y="425" type="curve" smooth="yes"/>
      <point x="553" y="425" type="line"/>
      <point x="553" y="467" type="line" smooth="yes"/>
      <point x="553" y="535"/>
      <point x="513" y="569"/>
      <point x="438" y="569" type="curve" smooth="yes"/>
      <point x="380" y="569"/>
      <point x="341" y="555"/>
      <point x="306" y="537" type="curve"/>
      <point x="297" y="556" type="line"/>
      <point x="338" y="576"/>
      <point x="377" y="589"/>
      <point x="439" y="589" type="curve" smooth="yes"/>
      <point x="530" y="589"/>
      <point x="575" y="545"/>
      <point x="575" y="468" type="curve" smooth="yes"/>
      <point x="575" y="468"/>
      <point x="575" y="273"/>
      <point x="575" y="236" type="curve" smooth="yes"/>
      <point x="575" y="199"/>
      <point x="586" y="184"/>
      <point x="631" y="184" type="curve" smooth="yes"/>
      <point x="700" y="184"/>
      <point x="767" y="255"/>
      <point x="767" y="395" type="curve" smooth="yes"/>
      <point x="767" y="575"/>
      <point x="632" y="722"/>
      <point x="418" y="722" type="curve" smooth="yes"/>
      <point x="222" y="722"/>
      <point x="69" y="561"/>
      <point x="69" y="365" type="curve" smooth="yes"/>
      <point x="69" y="169"/>
      <point x="222" y="8"/>
      <point x="418" y="8" type="curve" smooth="yes"/>
      <point x="462" y="8"/>
      <point x="513" y="15"/>
      <point x="566" y="39" type="curve"/>
      <point x="575" y="20" type="line"/>
      <point x="518" y="-6"/>
      <point x="465" y="-12"/>
      <point x="418" y="-12" type="curve" smooth="yes"/>
      <point x="210" y="-12"/>
      <point x="47" y="157"/>
      <point x="47" y="365" type="curve" smooth="yes"/>
      <point x="47" y="573"/>
      <point x="210" y="742"/>
      <point x="418" y="742" type="curve" smooth="yes"/>
      <point x="646" y="742"/>
      <point x="789" y="587"/>
      <point x="789" y="395" type="curve" smooth="yes"/>
      <point x="789" y="239"/>
      <point x="709" y="164"/>
      <point x="630" y="164" type="curve" smooth="yes"/>
      <point x="567" y="164"/>
      <point x="553" y="196"/>
    </contour>
    <contour>
      <point x="553" y="262" type="curve"/>
      <point x="553" y="405" type="line"/>
      <point x="457" y="405" type="line" smooth="yes"/>
      <point x="354" y="405"/>
      <point x="281" y="371"/>
      <point x="281" y="290" type="curve" smooth="yes"/>
      <point x="281" y="222"/>
      <point x="332" y="192"/>
      <point x="394" y="192" type="curve" smooth="yes"/>
      <point x="456" y="192"/>
      <point x="508" y="219"/>
    </contour>
  </outline>
</glyph>
<glyph name="A" format="1">
  <advance width="433"/>
  <unicode hex="0041"/>
  <outline>
    <contour>
      <point x="417" y="0" type="line"/>
      <point x="398" y="0" type="line"/>
      <point x="349" y="185" type="line"/>
      <point x="83" y="185" type="line"/>
      <point x="35" y="-1" type="line"/>
      <point x="15" y="0" type="line"/>
      <point x="210" y="743" type="line"/>
      <point x="225" y="743" type="line"/>
    </contour>
    <contour>
      <point x="344" y="203" type="line"/>
      <point x="217" y="708" type="line"/>
      <point x="88" y="203" type="line"/>
    </contour>
  </outline>
</glyph>
<glyph name="B" format="1">
  <advance width="359"/>
  <unicode hex="0042"/>
  <outline>
    <contour>
      <point x="129" y="0" type="curve" smooth="yes"/>
      <point x="61" y="0" type="line"/>
      <point x="61" y="730" type="line"/>
      <point x="128" y="730" type="line" smooth="yes"/>
      <point x="231" y="730"/>
      <point x="308" y="671"/>
      <point x="308" y="553" type="curve" smooth="yes"/>
      <point x="308" y="460"/>
      <point x="265" y="390"/>
      <point x="187" y="374" type="curve"/>
      <point x="267" y="367"/>
      <point x="331" y="294"/>
      <point x="331" y="192" type="curve" smooth="yes"/>
      <point x="331" y="64"/>
      <point x="263" y="0"/>
    </contour>
    <contour>
      <point x="128" y="713" type="curve" smooth="yes"/>
      <point x="80" y="713" type="line"/>
      <point x="80" y="382" type="line"/>
      <point x="142" y="382" type="line" smooth="yes"/>
      <point x="240" y="382"/>
      <point x="289" y="454"/>
      <point x="289" y="553" type="curve" smooth="yes"/>
      <point x="289" y="642"/>
      <point x="240" y="713"/>
    </contour>
    <contour>
      <point x="149" y="363" type="curve" smooth="yes"/>
      <point x="80" y="363" type="line"/>
      <point x="80" y="17" type="line"/>
      <point x="128" y="17" type="line" smooth="yes"/>
      <point x="257" y="17"/>
      <point x="312" y="82"/>
      <point x="312" y="189" type="curve" smooth="yes"/>
      <point x="312" y="306"/>
      <point x="238" y="363"/>
    </contour>
  </outline>
</glyph>
<glyph name="C" format="1">
  <advance width="367"/>
  <unicode hex="0043"/>
  <outline>
    <contour>
      <point x="352" y="65" type="line"/>
      <point x="330" y="29"/>
      <point x="292" y="-12"/>
      <point x="225" y="-12" type="curve" smooth="yes"/>
      <point x="89" y="-12"/>
      <point x="40" y="144"/>
      <point x="40" y="362" type="curve" smooth="yes"/>
      <point x="40" y="618"/>
      <point x="106" y="742"/>
      <point x="225" y="742" type="curve" smooth="yes"/>
      <point x="285" y="742"/>
      <point x="326" y="706"/>
      <point x="347" y="665" type="curve"/>
      <point x="332" y="656" type="line"/>
      <point x="308" y="698"/>
      <point x="275" y="725"/>
      <point x="225" y="725" type="curve" smooth="yes"/>
      <point x="115" y="725"/>
      <point x="59" y="595"/>
      <point x="59" y="362" type="curve" smooth="yes"/>
      <point x="59" y="148"/>
      <point x="108" y="5"/>
      <point x="225" y="5" type="curve" smooth="yes"/>
      <point x="276" y="5"/>
      <point x="313" y="34"/>
      <point x="338" y="74" type="curve"/>
    </contour>
  </outline>
</glyph>
<glyph name="D" format="1">
  <advance width="416"/>
  <unicode hex="0044"/>
  <outline>
    <contour>
      <point x="118" y="0" type="curve" smooth="yes"/>
      <point x="61" y="0" type="line"/>
      <point x="61" y="730" type="line"/>
      <point x="121" y="730" type="line" smooth="yes"/>
      <point x="301" y="730"/>
      <point x="378" y="568"/>
      <point x="378" y="372" type="curve" smooth="yes"/>
      <point x="378" y="142"/>
      <point x="284" y="0"/>
    </contour>
    <contour>
      <point x="121" y="713" type="curve" smooth="yes"/>
      <point x="80" y="713" type="line"/>
      <point x="80" y="17" type="line"/>
      <point x="118" y="17" type="line" smooth="yes"/>
      <point x="281" y="17"/>
      <point x="359" y="168"/>
      <point x="359" y="372" type="curve" smooth="yes"/>
      <point x="359" y="554"/>
      <point x="290" y="713"/>
    </contour>
  </outline>
</glyph>
<glyph name="E" format="1">
  <advance width="328"/>
  <unicode hex="0045"/>
  <outline>
    <contour>
      <point x="302" y="0" type="line"/>
      <point x="61" y="0" type="line"/>
      <point x="61" y="730" type="line"/>
      <point x="293" y="730" type="line"/>
      <point x="293" y="711" type="line"/>
      <point x="80" y="711" type="line"/>
      <point x="80" y="380" type="line"/>
      <point x="266" y="380" type="line"/>
      <point x="266" y="361" type="line"/>
      <point x="80" y="361" type="line"/>
      <point x="80" y="19" type="line"/>
      <point x="302" y="19" type="line"/>
    </contour>
  </outline>
</glyph>
<glyph name="F" format="1">
  <advance width="296"/>
  <unicode hex="0046"/>
  <outline>
    <contour>
      <point x="273" y="711" type="line"/>
      <point x="80" y="711" type="line"/>
      <point x="80" y="380" type="line"/>
      <point x="248" y="380" type="line"/>
      <point x="248" y="361" type="line"/>
      <point x="80" y="361" type="line"/>
      <point x="80" y="0" type="line"/>
      <point x="61" y="0" type="line"/>
      <point x="61" y="730" type="line"/>
      <point x="273" y="730" type="line"/>
    </contour>
  </outline>
</glyph>
<glyph name="G" format="1">
  <advance width="398"/>
  <unicode hex="0047"/>
  <outline>
    <contour>
      <point x="216" y="725" type="curve" smooth="yes"/>
      <point x="107" y="725"/>
      <point x="61" y="554"/>
      <point x="61" y="363" type="curve" smooth="yes"/>
      <point x="61" y="162"/>
      <point x="108" y="5"/>
      <point x="222" y="5" type="curve" smooth="yes"/>
      <point x="272" y="5"/>
      <point x="312" y="34"/>
      <point x="332" y="52" type="curve"/>
      <point x="332" y="330" type="line"/>
      <point x="250" y="330" type="line"/>
      <point x="250" y="349" type="line"/>
      <point x="351" y="349" type="line"/>
      <point x="351" y="44" type="line"/>
      <point x="320" y="20"/>
      <point x="279" y="-12"/>
      <point x="222" y="-12" type="curve" smooth="yes"/>
      <point x="101" y="-12"/>
      <point x="42" y="128"/>
      <point x="42" y="363" type="curve" smooth="yes"/>
      <point x="42" y="576"/>
      <point x="99" y="742"/>
      <point x="216" y="742" type="curve" smooth="yes"/>
      <point x="276" y="742"/>
      <point x="310" y="710"/>
      <point x="335" y="665" type="curve"/>
      <point x="320" y="656" type="line"/>
      <point x="295" y="698"/>
      <point x="263" y="725"/>
    </contour>
  </outline>
</glyph>
<glyph name="H" format="1">
  <advance width="431"/>
  <unicode hex="0048"/>
  <outline>
    <contour>
      <point x="370" y="0" type="line"/>
      <point x="351" y="0" type="line"/>
      <point x="351" y="361" type="line"/>
      <point x="80" y="361" type="line"/>
      <point x="80" y="0" type="line"/>
      <point x="61" y="0" type="line"/>
      <point x="61" y="730" type="line"/>
      <point x="80" y="730" type="line"/>
      <point x="80" y="380" type="line"/>
      <point x="351" y="380" type="line"/>
      <point x="351" y="730" type="line"/>
      <point x="370" y="730" type="line"/>
    </contour>
  </outline>
</glyph>
<glyph name="I" format="1">
  <advance width="159"/>
  <unicode hex="0049"/>
  <outline>
    <contour>
      <point x="89" y="0" type="line"/>
      <point x="70" y="0" type="line"/>
      <point x="70" y="730" type="line"/>
      <point x="89" y="730" type="line"/>
    </contour>
  </outline>
</glyph>
<glyph name="J" format="1">
  <advance width="179"/>
  <unicode hex="004A"/>
  <outline>
    <contour>
      <point x="117" y="116" type="line" smooth="yes"/>
      <point x="117" y="40"/>
      <point x="72" y="1"/>
      <point x="22" y="-6" type="curve"/>
      <point x="22" y="14" type="line"/>
      <point x="67" y="22"/>
      <point x="98" y="57"/>
      <point x="98" y="120" type="curve" smooth="yes"/>
      <point x="98" y="730" type="line"/>
      <point x="117" y="730" type="line"/>
    </contour>
  </outline>
</glyph>
<glyph name="K" format="1">
  <advance width="352"/>
  <unicode hex="004B"/>
  <outline>
    <contour>
      <point x="336" y="730" type="line"/>
      <point x="149" y="446" type="line"/>
      <point x="343" y="0" type="line"/>
      <point x="322" y="0" type="line"/>
      <point x="135" y="428" type="line"/>
      <point x="80" y="346" type="line"/>
      <point x="80" y="0" type="line"/>
      <point x="61" y="0" type="line"/>
      <point x="61" y="730" type="line"/>
      <point x="80" y="730" type="line"/>
      <point x="80" y="377" type="line"/>
      <point x="315" y="730" type="line"/>
    </contour>
  </outline>
</glyph>
<glyph name="L" format="1">
  <advance width="299"/>
  <unicode hex="004C"/>
  <outline>
    <contour>
      <point x="287" y="0" type="line"/>
      <point x="61" y="0" type="line"/>
      <point x="61" y="730" type="line"/>
      <point x="80" y="730" type="line"/>
      <point x="80" y="19" type="line"/>
      <point x="287" y="19" type="line"/>
    </contour>
  </outline>
</glyph>
<glyph name="M" format="1">
  <advance width="522"/>
  <unicode hex="004D"/>
  <outline>
    <contour>
      <point x="459" y="0" type="line"/>
      <point x="440" y="0" type="line"/>
      <point x="440" y="677" type="line"/>
      <point x="268" y="242" type="line"/>
      <point x="252" y="242" type="line"/>
      <point x="80" y="677" type="line"/>
      <point x="80" y="0" type="line"/>
      <point x="61" y="0" type="line"/>
      <point x="61" y="730" type="line"/>
      <point x="79" y="730" type="line"/>
      <point x="260" y="272" type="line"/>
      <point x="441" y="730" type="line"/>
      <point x="459" y="730" type="line"/>
    </contour>
  </outline>
</glyph>
<glyph name="N" format="1">
  <advance width="439"/>
  <unicode hex="004E"/>
  <outline>
    <contour>
      <point x="376" y="0" type="line"/>
      <point x="363" y="0" type="line"/>
      <point x="79" y="678" type="line"/>
      <point x="79" y="0" type="line"/>
      <point x="61" y="0" type="line"/>
      <point x="61" y="730" type="line"/>
      <point x="78" y="730" type="line"/>
      <point x="358" y="62" type="line"/>
      <point x="358" y="730" type="line"/>
      <point x="376" y="730" type="line"/>
    </contour>
  </outline>
</glyph>
<glyph name="O" format="1">
  <advance width="447"/>
  <unicode hex="004F"/>
  <outline>
    <contour>
      <point x="223" y="-12" type="curve" smooth="yes"/>
      <point x="86" y="-12"/>
      <point x="38" y="146"/>
      <point x="38" y="363" type="curve" smooth="yes"/>
      <point x="38" y="579"/>
      <point x="91" y="742"/>
      <point x="223" y="742" type="curve" smooth="yes"/>
      <point x="355" y="742"/>
      <point x="409" y="579"/>
      <point x="409" y="363" type="curve" smooth="yes"/>
      <point x="409" y="146"/>
      <point x="356" y="-12"/>
    </contour>
    <contour>
      <point x="223" y="725" type="curve" smooth="yes"/>
      <point x="103" y="725"/>
      <point x="57" y="567"/>
      <point x="57" y="363" type="curve" smooth="yes"/>
      <point x="57" y="159"/>
      <point x="101" y="5"/>
      <point x="223" y="5" type="curve" smooth="yes"/>
      <point x="343" y="5"/>
      <point x="390" y="159"/>
      <point x="390" y="363" type="curve" smooth="yes"/>
      <point x="390" y="567"/>
      <point x="343" y="725"/>
    </contour>
  </outline>
</glyph>
<glyph name="P" format="1">
  <advance width="335"/>
  <unicode hex="0050"/>
  <outline>
    <contour>
      <point x="311" y="531" type="curve" smooth="yes"/>
      <point x="311" y="420"/>
      <point x="237" y="325"/>
      <point x="110" y="325" type="curve" smooth="yes"/>
      <point x="80" y="325" type="line"/>
      <point x="80" y="0" type="line"/>
      <point x="61" y="0" type="line"/>
      <point x="61" y="730" type="line"/>
      <point x="113" y="730" type="line" smooth="yes"/>
      <point x="228" y="730"/>
      <point x="311" y="667"/>
    </contour>
    <contour>
      <point x="292" y="531" type="curve" smooth="yes"/>
      <point x="292" y="656"/>
      <point x="221" y="713"/>
      <point x="113" y="713" type="curve" smooth="yes"/>
      <point x="80" y="713" type="line"/>
      <point x="80" y="342" type="line"/>
      <point x="110" y="342" type="line" smooth="yes"/>
      <point x="225" y="342"/>
      <point x="292" y="423"/>
    </contour>
  </outline>
</glyph>
<glyph name="Q" format="1">
  <advance width="447"/>
  <unicode hex="0051"/>
  <outline>
    <contour>
      <point x="328" y="34" type="curve"/>
      <point x="343" y="21"/>
      <point x="361" y="6"/>
      <point x="377" y="0" type="curve"/>
      <point x="366" y="-17" type="line"/>
      <point x="350" y="-8"/>
      <point x="329" y="7"/>
      <point x="315" y="21" type="curve"/>
      <point x="290" y="-1"/>
      <point x="259" y="-12"/>
      <point x="223" y="-12" type="curve" smooth="yes"/>
      <point x="86" y="-12"/>
      <point x="38" y="146"/>
      <point x="38" y="363" type="curve" smooth="yes"/>
      <point x="38" y="579"/>
      <point x="86" y="742"/>
      <point x="223" y="742" type="curve" smooth="yes"/>
      <point x="352" y="742"/>
      <point x="409" y="579"/>
      <point x="409" y="363" type="curve" smooth="yes"/>
      <point x="409" y="216"/>
      <point x="385" y="96"/>
    </contour>
    <contour>
      <point x="302" y="34" type="curve"/>
      <point x="287" y="52"/>
      <point x="275" y="70"/>
      <point x="268" y="83" type="curve"/>
      <point x="282" y="92" type="line"/>
      <point x="288" y="79"/>
      <point x="300" y="61"/>
      <point x="314" y="46" type="curve"/>
      <point x="367" y="105"/>
      <point x="390" y="222"/>
      <point x="390" y="363" type="curve" smooth="yes"/>
      <point x="390" y="567"/>
      <point x="339" y="725"/>
      <point x="223" y="725" type="curve" smooth="yes"/>
      <point x="101" y="725"/>
      <point x="57" y="567"/>
      <point x="57" y="363" type="curve" smooth="yes"/>
      <point x="57" y="159"/>
      <point x="101" y="5"/>
      <point x="223" y="5" type="curve" smooth="yes"/>
      <point x="254" y="5"/>
      <point x="280" y="15"/>
    </contour>
  </outline>
</glyph>
<glyph name="R" format="1">
  <advance width="327"/>
  <unicode hex="0052"/>
  <outline>
    <contour>
      <point x="312" y="0" type="line"/>
      <point x="291" y="0" type="line"/>
      <point x="80" y="346" type="line"/>
      <point x="80" y="0" type="line"/>
      <point x="61" y="0" type="line"/>
      <point x="61" y="730" type="line"/>
      <point x="112" y="730" type="line" smooth="yes"/>
      <point x="206" y="730"/>
      <point x="311" y="689"/>
      <point x="311" y="540" type="curve" smooth="yes"/>
      <point x="311" y="424"/>
      <point x="229" y="341"/>
      <point x="112" y="341" type="curve" smooth="yes"/>
      <point x="110" y="341"/>
      <point x="106" y="341"/>
      <point x="104" y="341" type="curve"/>
    </contour>
    <contour>
      <point x="107" y="713" type="curve" smooth="yes"/>
      <point x="80" y="713" type="line"/>
      <point x="80" y="358" type="line"/>
      <point x="112" y="358" type="line" smooth="yes"/>
      <point x="210" y="358"/>
      <point x="292" y="425"/>
      <point x="292" y="540" type="curve" smooth="yes"/>
      <point x="292" y="668"/>
      <point x="211" y="713"/>
    </contour>
  </outline>
</glyph>
<glyph name="S" format="1">
  <advance width="320"/>
  <unicode hex="0053"/>
  <outline>
    <contour>
      <point x="157" y="-12" type="curve" smooth="yes"/>
      <point x="100" y="-12"/>
      <point x="61" y="10"/>
      <point x="22" y="62" type="curve"/>
      <point x="35" y="73" type="line"/>
      <point x="73" y="25"/>
      <point x="106" y="5"/>
      <point x="159" y="5" type="curve" smooth="yes"/>
      <point x="222" y="5"/>
      <point x="271" y="72"/>
      <point x="271" y="142" type="curve" smooth="yes"/>
      <point x="271" y="204"/>
      <point x="262" y="260"/>
      <point x="153" y="379" type="curve" smooth="yes"/>
      <point x="57" y="484"/>
      <point x="39" y="532"/>
      <point x="39" y="602" type="curve" smooth="yes"/>
      <point x="39" y="695"/>
      <point x="102" y="742"/>
      <point x="157" y="742" type="curve" smooth="yes"/>
      <point x="216" y="742"/>
      <point x="244" y="713"/>
      <point x="272" y="676" type="curve"/>
      <point x="257" y="664" type="line"/>
      <point x="229" y="701"/>
      <point x="205" y="724"/>
      <point x="157" y="724" type="curve" smooth="yes"/>
      <point x="103" y="724"/>
      <point x="58" y="676"/>
      <point x="58" y="602" type="curve" smooth="yes"/>
      <point x="58" y="542"/>
      <point x="73" y="494"/>
      <point x="167" y="392" type="curve" smooth="yes"/>
      <point x="277" y="272"/>
      <point x="290" y="216"/>
      <point x="290" y="143" type="curve" smooth="yes"/>
      <point x="290" y="65"/>
      <point x="234" y="-12"/>
    </contour>
  </outline>
</glyph>
<glyph name="T" format="1">
  <advance width="312"/>
  <unicode hex="0054"/>
  <outline>
    <contour>
      <point x="298" y="713" type="line"/>
      <point x="166" y="713" type="line"/>
      <point x="166" y="0" type="line"/>
      <point x="147" y="0" type="line"/>
      <point x="147" y="713" type="line"/>
      <point x="12" y="713" type="line"/>
      <point x="12" y="730" type="line"/>
      <point x="298" y="730" type="line"/>
    </contour>
  </outline>
</glyph>
<glyph name="U" format="1">
  <advance width="439"/>
  <unicode hex="0055"/>
  <outline>
    <contour>
      <point x="387" y="730" type="line"/>
      <point x="387" y="186" type="line" smooth="yes"/>
      <point x="387" y="61"/>
      <point x="320" y="-12"/>
      <point x="223" y="-12" type="curve" smooth="yes"/>
      <point x="128" y="-12"/>
      <point x="59" y="59"/>
      <point x="59" y="186" type="curve" smooth="yes"/>
      <point x="59" y="730" type="line"/>
      <point x="78" y="730" type="line"/>
      <point x="78" y="186" type="line" smooth="yes"/>
      <point x="78" y="75"/>
      <point x="139" y="7"/>
      <point x="223" y="7" type="curve" smooth="yes"/>
      <point x="309" y="7"/>
      <point x="368" y="75"/>
      <point x="368" y="186" type="curve" smooth="yes"/>
      <point x="368" y="730" type="line"/>
    </contour>
  </outline>
</glyph>
<glyph name="V" format="1">
  <advance width="411"/>
  <unicode hex="0056"/>
  <outline>
    <contour>
      <point x="399" y="730" type="line"/>
      <point x="214" y="0" type="line"/>
      <point x="200" y="0" type="line"/>
      <point x="14" y="730" type="line"/>
      <point x="33" y="730" type="line"/>
      <point x="207" y="44" type="line"/>
      <point x="380" y="730" type="line"/>
    </contour>
  </outline>
</glyph>
<glyph name="W" format="1">
  <advance width="645"/>
  <unicode hex="0057"/>
  <outline>
    <contour>
      <point x="629" y="730" type="line"/>
      <point x="481" y="0" type="line"/>
      <point x="471" y="0" type="line"/>
      <point x="323" y="669" type="line"/>
      <point x="174" y="0" type="line"/>
      <point x="164" y="0" type="line"/>
      <point x="16" y="730" type="line"/>
      <point x="36" y="730" type="line"/>
      <point x="169" y="66" type="line"/>
      <point x="318" y="730" type="line"/>
      <point x="328" y="730" type="line"/>
      <point x="476" y="66" type="line"/>
      <point x="609" y="730" type="line"/>
    </contour>
  </outline>
</glyph>
<glyph name="X" format="1">
  <advance width="393"/>
  <unicode hex="0058"/>
  <outline>
    <contour>
      <point x="196" y="376" type="line"/>
      <point x="196" y="377"/>
      <point x="35" y="0"/>
      <point x="35" y="0" type="curve"/>
      <point x="15" y="0" type="line"/>
      <point x="186" y="399" type="line"/>
      <point x="44" y="730" type="line"/>
      <point x="64" y="730" type="line"/>
      <point x="196" y="422" type="line"/>
      <point x="328" y="730" type="line"/>
      <point x="348" y="730" type="line"/>
      <point x="206" y="399" type="line"/>
      <point x="377" y="0" type="line"/>
      <point x="357" y="0" type="line"/>
    </contour>
  </outline>
</glyph>
<glyph name="Y" format="1">
  <advance width="359"/>
  <unicode hex="0059"/>
  <outline>
    <contour>
      <point x="353" y="730" type="line"/>
      <point x="190" y="345" type="line"/>
      <point x="190" y="0" type="line"/>
      <point x="170" y="0" type="line"/>
      <point x="170" y="345" type="line"/>
      <point x="6" y="730" type="line"/>
      <point x="26" y="730" type="line"/>
      <point x="180" y="366" type="line"/>
      <point x="333" y="730" type="line"/>
    </contour>
  </outline>
</glyph>
<glyph name="Z" format="1">
  <advance width="341"/>
  <unicode hex="005A"/>
  <outline>
    <contour>
      <point x="326" y="730" type="line"/>
      <point x="41" y="19" type="line"/>
      <point x="307" y="19" type="line"/>
      <point x="307" y="0" type="line"/>
      <point x="14" y="0" type="line"/>
      <point x="298" y="711" type="line"/>
      <point x="50" y="711" type="line"/>
      <point x="50" y="730" type="line"/>
    </contour>
  </outline>
</glyph>
<glyph name="bracketleft" format="1">
  <advance width="211"/>
  <unicode hex="005B"/>
  <outline>
    <contour>
      <point x="180" y="-179" type="line"/>
      <point x="65" y="-179" type="line"/>
      <point x="65" y="730" type="line"/>
      <point x="179" y="730" type="line"/>
      <point x="179" y="712" type="line"/>
      <point x="84" y="712" type="line"/>
      <point x="84" y="-161" type="line"/>
      <point x="180" y="-161" type="line"/>
    </contour>
  </outline>
</glyph>
<glyph name="bracketright" format="1">
  <advance width="212"/>
  <unicode hex="005D"/>
  <outline>
    <contour>
      <point x="147" y="-179" type="line"/>
      <point x="32" y="-179" type="line"/>
      <point x="32" y="-161" type="line"/>
      <point x="128" y="-161" type="line"/>
      <point x="128" y="712" type="line"/>
      <point x="32" y="712" type="line"/>
      <point x="32" y="730" type="line"/>
      <point x="147" y="730" type="line"/>
    </contour>
  </outline>
</glyph>
<glyph name="asciicircum" format="1">
  <advance width="458"/>
  <unicode hex="005E"/>
  <outline>
    <contour>
      <point x="419" y="369" type="line"/>
      <point x="399" y="369" type="line"/>
      <point x="229" y="705" type="line"/>
      <point x="60" y="369" type="line"/>
      <point x="39" y="369" type="line"/>
      <point x="221" y="730" type="line"/>
      <point x="237" y="730" type="line"/>
    </contour>
  </outline>
</glyph>
<glyph name="underscore" format="1">
  <advance width="478"/>
  <unicode hex="005F"/>
  <outline>
    <contour>
      <point x="480" y="-95" type="line"/>
      <point x="-5" y="-95" type="line"/>
      <point x="-5" y="-76" type="line"/>
      <point x="480" y="-76" type="line"/>
    </contour>
  </outline>
</glyph>
<glyph name="grave" format="1">
  <advance width="410"/>
  <unicode hex="0060"/>
  <outline>
    <contour>
      <point x="243" y="484" type="line"/>
      <point x="225" y="484" type="line"/>
      <point x="167" y="614" type="line"/>
      <point x="186" y="614" type="line"/>
    </contour>
  </outline>
</glyph>
<glyph name="a" format="1">
  <advance width="289"/>
  <unicode hex="0061"/>
  <outline>
    <contour>
      <point x="230" y="0" type="line"/>
      <point x="230" y="34" type="line"/>
      <point x="203" y="7"/>
      <point x="177" y="-8"/>
      <point x="134" y="-8" type="curve" smooth="yes"/>
      <point x="83" y="-8"/>
      <point x="37" y="26"/>
      <point x="37" y="109" type="curve" smooth="yes"/>
      <point x="37" y="193"/>
      <point x="109" y="244"/>
      <point x="202" y="244" type="curve" smooth="yes"/>
      <point x="230" y="244" type="line"/>
      <point x="230" y="295" type="line" smooth="yes"/>
      <point x="230" y="360"/>
      <point x="213" y="392"/>
      <point x="157" y="392" type="curve" smooth="yes"/>
      <point x="123" y="392"/>
      <point x="91" y="378"/>
      <point x="59" y="356" type="curve"/>
      <point x="52" y="371" type="line"/>
      <point x="84" y="392"/>
      <point x="118" y="409"/>
      <point x="158" y="409" type="curve" smooth="yes"/>
      <point x="226" y="409"/>
      <point x="248" y="365"/>
      <point x="248" y="301" type="curve" smooth="yes"/>
      <point x="248" y="0" type="line"/>
    </contour>
    <contour>
      <point x="230" y="227" type="line"/>
      <point x="202" y="227" type="line" smooth="yes"/>
      <point x="106" y="227"/>
      <point x="54" y="175"/>
      <point x="54" y="110" type="curve" smooth="yes"/>
      <point x="54" y="40"/>
      <point x="89" y="9"/>
      <point x="133" y="9" type="curve" smooth="yes"/>
      <point x="164" y="9"/>
      <point x="186" y="12"/>
      <point x="230" y="53" type="curve"/>
    </contour>
  </outline>
</glyph>
<glyph name="b" format="1">
  <advance width="316"/>
  <unicode hex="0062"/>
  <outline>
    <contour>
      <point x="165" y="-15" type="curve" smooth="yes"/>
      <point x="114" y="-15"/>
      <point x="73" y="21"/>
      <point x="64" y="82" type="curve"/>
      <point x="64" y="0" type="line"/>
      <point x="46" y="0" type="line"/>
      <point x="46" y="730" type="line"/>
      <point x="64" y="730" type="line"/>
      <point x="64" y="306" type="line"/>
      <point x="76" y="382"/>
      <point x="123" y="411"/>
      <point x="165" y="411" type="curve" smooth="yes"/>
      <point x="250" y="411"/>
      <point x="284" y="325"/>
      <point x="284" y="200" type="curve" smooth="yes"/>
      <point x="284" y="70"/>
      <point x="250" y="-15"/>
    </contour>
    <contour>
      <point x="165" y="394" type="curve" smooth="yes"/>
      <point x="120" y="394"/>
      <point x="64" y="353"/>
      <point x="64" y="201" type="curve" smooth="yes"/>
      <point x="64" y="42"/>
      <point x="110" y="1"/>
      <point x="165" y="1" type="curve" smooth="yes"/>
      <point x="240" y="1"/>
      <point x="266" y="90"/>
      <point x="266" y="200" type="curve" smooth="yes"/>
      <point x="266" y="311"/>
      <point x="240" y="394"/>
    </contour>
  </outline>
</glyph>
<glyph name="c" format="1">
  <advance width="261"/>
  <unicode hex="0063"/>
  <outline>
    <contour>
      <point x="250" y="57" type="line"/>
      <point x="233" y="16"/>
      <point x="201" y="-12"/>
      <point x="154" y="-12" type="curve" smooth="yes"/>
      <point x="59" y="-12"/>
      <point x="31" y="82"/>
      <point x="31" y="197" type="curve" smooth="yes"/>
      <point x="31" y="314"/>
      <point x="60" y="408"/>
      <point x="148" y="408" type="curve" smooth="yes"/>
      <point x="200" y="408"/>
      <point x="228" y="374"/>
      <point x="241" y="332" type="curve"/>
      <point x="226" y="326" type="line"/>
      <point x="212" y="366"/>
      <point x="188" y="392"/>
      <point x="148" y="392" type="curve" smooth="yes"/>
      <point x="70" y="392"/>
      <point x="49" y="300"/>
      <point x="49" y="197" type="curve" smooth="yes"/>
      <point x="49" y="98"/>
      <point x="68" y="4"/>
      <point x="154" y="4" type="curve" smooth="yes"/>
      <point x="195" y="4"/>
      <point x="223" y="32"/>
      <point x="235" y="64" type="curve"/>
    </contour>
  </outline>
</glyph>
<glyph name="e" format="1">
  <advance width="292"/>
  <unicode hex="0065"/>
  <outline>
    <contour>
      <point x="250" y="57" type="line"/>
      <point x="233" y="16"/>
      <point x="201" y="-12"/>
      <point x="154" y="-12" type="curve" smooth="yes"/>
      <point x="59" y="-12"/>
      <point x="31" y="82"/>
      <point x="31" y="197" type="curve" smooth="yes"/>
      <point x="31" y="322"/>
      <point x="66" y="408"/>
      <point x="149" y="408" type="curve" smooth="yes"/>
      <point x="247" y="408"/>
      <point x="266" y="289"/>
      <point x="266" y="217" type="curve" smooth="yes"/>
      <point x="266" y="203" type="line"/>
      <point x="49" y="203" type="line"/>
      <point x="48" y="98"/>
      <point x="68" y="4"/>
      <point x="154" y="4" type="curve" smooth="yes"/>
      <point x="195" y="4"/>
      <point x="223" y="32"/>
      <point x="235" y="64" type="curve"/>
    </contour>
    <contour>
      <point x="247" y="220" type="line"/>
      <point x="247" y="230" type="line" smooth="yes"/>
      <point x="247" y="295"/>
      <point x="229" y="392"/>
      <point x="148" y="392" type="curve" smooth="yes"/>
      <point x="75" y="392"/>
      <point x="50" y="306"/>
      <point x="50" y="220" type="curve"/>
    </contour>
  </outline>
</glyph>
<glyph name="f" format="1">
  <advance width="128"/>
  <unicode hex="0066"/>
  <outline>
    <contour>
      <point x="112" y="381" type="line"/>
      <point x="69" y="381" type="line"/>
      <point x="69" y="0" type="line"/>
      <point x="51" y="0" type="line"/>
      <point x="51" y="381" type="line"/>
      <point x="8" y="381" type="line"/>
      <point x="8" y="398" type="line"/>
      <point x="51" y="398" type="line"/>
      <point x="51" y="663" type="line" smooth="yes"/>
      <point x="51" y="704"/>
      <point x="71" y="738"/>
      <point x="112" y="738" type="curve" smooth="yes"/>
      <point x="115" y="738"/>
      <point x="116" y="738"/>
      <point x="116" y="738" type="curve"/>
      <point x="116" y="720" type="line"/>
      <point x="85" y="720"/>
      <point x="69" y="702"/>
      <point x="69" y="663" type="curve" smooth="yes"/>
      <point x="69" y="398" type="line"/>
      <point x="112" y="398" type="line"/>
    </contour>
  </outline>
</glyph>
<glyph name="g" format="1">
  <advance width="315"/>
  <unicode hex="0067"/>
  <outline>
    <contour>
      <point x="269" y="-31" type="line" smooth="yes"/>
      <point x="269" y="-122"/>
      <point x="225" y="-179"/>
      <point x="152" y="-179" type="curve" smooth="yes"/>
      <point x="108" y="-179"/>
      <point x="76" y="-162"/>
      <point x="45" y="-128" type="curve"/>
      <point x="57" y="-116" type="line"/>
      <point x="86" y="-149"/>
      <point x="115" y="-162"/>
      <point x="153" y="-162" type="curve" smooth="yes"/>
      <point x="213" y="-162"/>
      <point x="251" y="-117"/>
      <point x="251" y="-34" type="curve" smooth="yes"/>
      <point x="251" y="82" type="line"/>
      <point x="242" y="21"/>
      <point x="201" y="-15"/>
      <point x="150" y="-15" type="curve" smooth="yes"/>
      <point x="65" y="-15"/>
      <point x="31" y="70"/>
      <point x="31" y="200" type="curve" smooth="yes"/>
      <point x="31" y="325"/>
      <point x="65" y="411"/>
      <point x="150" y="411" type="curve" smooth="yes"/>
      <point x="192" y="411"/>
      <point x="239" y="382"/>
      <point x="251" y="306" type="curve"/>
      <point x="251" y="396" type="line"/>
      <point x="269" y="396" type="line"/>
    </contour>
    <contour>
      <point x="150" y="394" type="curve" smooth="yes"/>
      <point x="75" y="394"/>
      <point x="49" y="311"/>
      <point x="49" y="200" type="curve" smooth="yes"/>
      <point x="49" y="90"/>
      <point x="75" y="1"/>
      <point x="150" y="1" type="curve" smooth="yes"/>
      <point x="205" y="1"/>
      <point x="251" y="42"/>
      <point x="251" y="201" type="curve" smooth="yes"/>
      <point x="251" y="353"/>
      <point x="195" y="394"/>
    </contour>
  </outline>
</glyph>
<glyph name="h" format="1">
  <advance width="299"/>
  <unicode hex="0068"/>
  <outline>
    <contour>
      <point x="240" y="0" type="line"/>
      <point x="240" y="285" type="line" smooth="yes"/>
      <point x="240" y="343"/>
      <point x="216" y="394"/>
      <point x="158" y="394" type="curve" smooth="yes"/>
      <point x="102" y="394"/>
      <point x="64" y="346"/>
      <point x="64" y="276" type="curve" smooth="yes"/>
      <point x="64" y="0" type="line"/>
      <point x="46" y="0" type="line"/>
      <point x="46" y="730" type="line"/>
      <point x="64" y="730" type="line"/>
      <point x="64" y="336" type="line"/>
      <point x="72" y="373"/>
      <point x="107" y="411"/>
      <point x="159" y="411" type="curve" smooth="yes"/>
      <point x="232" y="411"/>
      <point x="258" y="347"/>
      <point x="258" y="283" type="curve" smooth="yes"/>
      <point x="258" y="0" type="line"/>
    </contour>
  </outline>
</glyph>
<glyph name="i" format="1">
  <advance width="128"/>
  <unicode hex="0069"/>
  <outline>
    <contour>
      <point x="73" y="494" type="line"/>
      <point x="55" y="494" type="line"/>
      <point x="55" y="563" type="line"/>
      <point x="73" y="563" type="line"/>
    </contour>
    <contour>
      <point x="73" y="0" type="line"/>
      <point x="55" y="0" type="line"/>
      <point x="55" y="396" type="line"/>
      <point x="73" y="396" type="line"/>
    </contour>
  </outline>
</glyph>
<glyph name="j" format="1">
  <advance width="128"/>
  <unicode hex="006A"/>
  <outline>
    <contour>
      <point x="73" y="494" type="line"/>
      <point x="55" y="494" type="line"/>
      <point x="55" y="563" type="line"/>
      <point x="73" y="563" type="line"/>
    </contour>
    <contour>
      <point x="73" y="-100" type="line" smooth="yes"/>
      <point x="73" y="-165"/>
      <point x="36" y="-179"/>
      <point x="8" y="-179" type="curve"/>
      <point x="8" y="-161" type="line"/>
      <point x="39" y="-161"/>
      <point x="55" y="-140"/>
      <point x="55" y="-95" type="curve" smooth="yes"/>
      <point x="55" y="396" type="line"/>
      <point x="73" y="396" type="line"/>
    </contour>
  </outline>
</glyph>
<glyph name="k" format="1">
  <advance width="282"/>
  <unicode hex="006B"/>
  <outline>
    <contour>
      <point x="268" y="0" type="line"/>
      <point x="248" y="0" type="line"/>
      <point x="140" y="228" type="line"/>
      <point x="64" y="117" type="line"/>
      <point x="64" y="0" type="line"/>
      <point x="46" y="0" type="line"/>
      <point x="46" y="730" type="line"/>
      <point x="64" y="730" type="line"/>
      <point x="64" y="146" type="line"/>
      <point x="231" y="396" type="line"/>
      <point x="251" y="396" type="line"/>
      <point x="152" y="247" type="line"/>
    </contour>
  </outline>
</glyph>
<glyph name="m" format="1">
  <advance width="493"/>
  <unicode hex="006D"/>
  <outline>
    <contour>
      <point x="258" y="0" type="line"/>
      <point x="240" y="0" type="line"/>
      <point x="240" y="285" type="line" smooth="yes"/>
      <point x="240" y="343"/>
      <point x="219" y="394"/>
      <point x="161" y="394" type="curve" smooth="yes"/>
      <point x="104" y="394"/>
      <point x="64" y="345"/>
      <point x="64" y="276" type="curve" smooth="yes"/>
      <point x="64" y="0" type="line"/>
      <point x="46" y="0" type="line"/>
      <point x="46" y="396" type="line"/>
      <point x="64" y="396" type="line"/>
      <point x="64" y="336" type="line"/>
      <point x="72" y="373"/>
      <point x="110" y="411"/>
      <point x="162" y="411" type="curve" smooth="yes"/>
      <point x="218" y="411"/>
      <point x="239" y="378"/>
      <point x="252" y="333" type="curve"/>
      <point x="260" y="370"/>
      <point x="301" y="411"/>
      <point x="353" y="411" type="curve" smooth="yes"/>
      <point x="426" y="411"/>
      <point x="452" y="347"/>
      <point x="452" y="283" type="curve" smooth="yes"/>
      <point x="452" y="0" type="line"/>
      <point x="434" y="0" type="line"/>
      <point x="434" y="285" type="line" smooth="yes"/>
      <point x="434" y="343"/>
      <point x="410" y="394"/>
      <point x="352" y="394" type="curve" smooth="yes"/>
      <point x="295" y="394"/>
      <point x="258" y="346"/>
      <point x="258" y="276" type="curve" smooth="yes"/>
    </contour>
  </outline>
</glyph>
<glyph name="n" format="1">
  <advance width="299"/>
  <unicode hex="006E"/>
  <outline>
    <contour>
      <point x="240" y="0" type="line"/>
      <point x="240" y="285" type="line" smooth="yes"/>
      <point x="240" y="343"/>
      <point x="219" y="394"/>
      <point x="161" y="394" type="curve" smooth="yes"/>
      <point x="104" y="394"/>
      <point x="64" y="345"/>
      <point x="64" y="276" type="curve" smooth="yes"/>
      <point x="64" y="0" type="line"/>
      <point x="46" y="0" type="line"/>
      <point x="46" y="396" type="line"/>
      <point x="64" y="396" type="line"/>
      <point x="64" y="336" type="line"/>
      <point x="72" y="373"/>
      <point x="110" y="411"/>
      <point x="162" y="411" type="curve" smooth="yes"/>
      <point x="234" y="411"/>
      <point x="258" y="350"/>
      <point x="258" y="285" type="curve" smooth="yes"/>
      <point x="258" y="0" type="line"/>
    </contour>
  </outline>
</glyph>
<glyph name="o" format="1">
  <advance width="296"/>
  <unicode hex="006F"/>
  <outline>
    <contour>
      <point x="148" y="-12" type="curve" smooth="yes"/>
      <point x="66" y="-12"/>
      <point x="31" y="83"/>
      <point x="31" y="198" type="curve" smooth="yes"/>
      <point x="31" y="311"/>
      <point x="66" y="408"/>
      <point x="148" y="408" type="curve" smooth="yes"/>
      <point x="230" y="408"/>
      <point x="265" y="311"/>
      <point x="265" y="198" type="curve" smooth="yes"/>
      <point x="265" y="83"/>
      <point x="230" y="-12"/>
    </contour>
    <contour>
      <point x="148" y="392" type="curve" smooth="yes"/>
      <point x="76" y="392"/>
      <point x="49" y="299"/>
      <point x="49" y="198" type="curve" smooth="yes"/>
      <point x="49" y="95"/>
      <point x="76" y="4"/>
      <point x="148" y="4" type="curve" smooth="yes"/>
      <point x="220" y="4"/>
      <point x="247" y="95"/>
      <point x="247" y="198" type="curve" smooth="yes"/>
      <point x="247" y="299"/>
      <point x="220" y="392"/>
    </contour>
  </outline>
</glyph>
<glyph name="p" format="1">
  <advance width="315"/>
  <unicode hex="0070"/>
  <outline>
    <contour>
      <point x="165" y="-15" type="curve" smooth="yes"/>
      <point x="114" y="-15"/>
      <point x="73" y="21"/>
      <point x="64" y="82" type="curve"/>
      <point x="64" y="-179" type="line"/>
      <point x="46" y="-179" type="line"/>
      <point x="46" y="396" type="line"/>
      <point x="64" y="396" type="line"/>
      <point x="64" y="306" type="line"/>
      <point x="76" y="382"/>
      <point x="123" y="411"/>
      <point x="165" y="411" type="curve" smooth="yes"/>
      <point x="250" y="411"/>
      <point x="284" y="325"/>
      <point x="284" y="200" type="curve" smooth="yes"/>
      <point x="284" y="70"/>
      <point x="250" y="-15"/>
    </contour>
    <contour>
      <point x="165" y="394" type="curve" smooth="yes"/>
      <point x="120" y="394"/>
      <point x="64" y="353"/>
      <point x="64" y="201" type="curve" smooth="yes"/>
      <point x="64" y="42"/>
      <point x="110" y="1"/>
      <point x="165" y="1" type="curve" smooth="yes"/>
      <point x="240" y="1"/>
      <point x="266" y="90"/>
      <point x="266" y="200" type="curve" smooth="yes"/>
      <point x="266" y="311"/>
      <point x="240" y="394"/>
    </contour>
  </outline>
</glyph>
<glyph name="q" format="1">
  <advance width="315"/>
  <unicode hex="0071"/>
  <outline>
    <contour>
      <point x="150" y="-15" type="curve" smooth="yes"/>
      <point x="65" y="-15"/>
      <point x="31" y="70"/>
      <point x="31" y="200" type="curve" smooth="yes"/>
      <point x="31" y="325"/>
      <point x="65" y="411"/>
      <point x="150" y="411" type="curve" smooth="yes"/>
      <point x="192" y="411"/>
      <point x="239" y="382"/>
      <point x="251" y="306" type="curve"/>
      <point x="251" y="396" type="line"/>
      <point x="269" y="396" type="line"/>
      <point x="269" y="-179" type="line"/>
      <point x="251" y="-179" type="line"/>
      <point x="251" y="82" type="line"/>
      <point x="242" y="21"/>
      <point x="201" y="-15"/>
    </contour>
    <contour>
      <point x="150" y="394" type="curve" smooth="yes"/>
      <point x="75" y="394"/>
      <point x="49" y="311"/>
      <point x="49" y="200" type="curve" smooth="yes"/>
      <point x="49" y="90"/>
      <point x="75" y="1"/>
      <point x="150" y="1" type="curve" smooth="yes"/>
      <point x="205" y="1"/>
      <point x="251" y="42"/>
      <point x="251" y="201" type="curve" smooth="yes"/>
      <point x="251" y="353"/>
      <point x="195" y="394"/>
    </contour>
  </outline>
</glyph>
<glyph name="r" format="1">
  <advance width="173"/>
  <unicode hex="0072"/>
  <outline>
    <contour>
      <point x="162" y="382" type="line"/>
      <point x="113" y="382"/>
      <point x="64" y="328"/>
      <point x="64" y="253" type="curve" smooth="yes"/>
      <point x="64" y="0" type="line"/>
      <point x="46" y="0" type="line"/>
      <point x="46" y="396" type="line"/>
      <point x="64" y="396" type="line"/>
      <point x="64" y="317" type="line"/>
      <point x="78" y="358"/>
      <point x="116" y="400"/>
      <point x="162" y="400" type="curve"/>
    </contour>
  </outline>
</glyph>
<glyph name="s" format="1">
  <advance width="245"/>
  <unicode hex="0073"/>
  <outline>
    <contour>
      <point x="228" y="93" type="curve" smooth="yes"/>
      <point x="228" y="32"/>
      <point x="175" y="-12"/>
      <point x="121" y="-12" type="curve" smooth="yes"/>
      <point x="74" y="-12"/>
      <point x="52" y="8"/>
      <point x="28" y="30" type="curve"/>
      <point x="40" y="43" type="line"/>
      <point x="67" y="18"/>
      <point x="81" y="4"/>
      <point x="121" y="4" type="curve" smooth="yes"/>
      <point x="175" y="4"/>
      <point x="210" y="49"/>
      <point x="210" y="92" type="curve" smooth="yes"/>
      <point x="210" y="127"/>
      <point x="192" y="158"/>
      <point x="138" y="187" type="curve" smooth="yes"/>
      <point x="55" y="232"/>
      <point x="30" y="264"/>
      <point x="30" y="317" type="curve" smooth="yes"/>
      <point x="30" y="368"/>
      <point x="73" y="408"/>
      <point x="125" y="408" type="curve" smooth="yes"/>
      <point x="163" y="408"/>
      <point x="188" y="391"/>
      <point x="212" y="370" type="curve"/>
      <point x="201" y="357" type="line"/>
      <point x="180" y="377"/>
      <point x="160" y="392"/>
      <point x="123" y="392" type="curve" smooth="yes"/>
      <point x="81" y="392"/>
      <point x="48" y="359"/>
      <point x="48" y="318" type="curve" smooth="yes"/>
      <point x="48" y="275"/>
      <point x="63" y="251"/>
      <point x="127" y="214" type="curve" smooth="yes"/>
      <point x="203" y="170"/>
      <point x="228" y="146"/>
    </contour>
  </outline>
</glyph>
<glyph name="t" format="1">
  <advance width="127"/>
  <unicode hex="0074"/>
  <outline>
    <contour>
      <point x="109" y="401" type="line"/>
      <point x="109" y="384" type="line"/>
      <point x="66" y="384" type="line"/>
      <point x="66" y="74" type="line" smooth="yes"/>
      <point x="66" y="37"/>
      <point x="82" y="14"/>
      <point x="113" y="14" type="curve"/>
      <point x="113" y="-3" type="line"/>
      <point x="113" y="-3"/>
      <point x="112" y="-3"/>
      <point x="109" y="-3" type="curve" smooth="yes"/>
      <point x="68" y="-3"/>
      <point x="48" y="31"/>
      <point x="48" y="72" type="curve" smooth="yes"/>
      <point x="48" y="384" type="line"/>
      <point x="5" y="384" type="line"/>
      <point x="5" y="401" type="line"/>
      <point x="48" y="401" type="line"/>
      <point x="48" y="588" type="line"/>
      <point x="66" y="588" type="line"/>
      <point x="66" y="401" type="line"/>
    </contour>
  </outline>
</glyph>
<glyph name="u" format="1">
  <advance width="299"/>
  <unicode hex="0075"/>
  <outline>
    <contour>
      <point x="59" y="396" type="line"/>
      <point x="59" y="114" type="line" smooth="yes"/>
      <point x="59" y="56"/>
      <point x="83" y="5"/>
      <point x="141" y="5" type="curve" smooth="yes"/>
      <point x="198" y="5"/>
      <point x="235" y="54"/>
      <point x="235" y="123" type="curve" smooth="yes"/>
      <point x="235" y="396" type="line"/>
      <point x="253" y="396" type="line"/>
      <point x="253" y="0" type="line"/>
      <point x="235" y="0" type="line"/>
      <point x="235" y="63" type="line"/>
      <point x="227" y="26"/>
      <point x="192" y="-12"/>
      <point x="140" y="-12" type="curve" smooth="yes"/>
      <point x="67" y="-12"/>
      <point x="41" y="51"/>
      <point x="41" y="115" type="curve" smooth="yes"/>
      <point x="41" y="396" type="line"/>
    </contour>
  </outline>
</glyph>
<glyph name="v" format="1">
  <advance width="271"/>
  <unicode hex="0076"/>
  <outline>
    <contour>
      <point x="256" y="396" type="line"/>
      <point x="143" y="0" type="line"/>
      <point x="128" y="0" type="line"/>
      <point x="15" y="396" type="line"/>
      <point x="33" y="396" type="line"/>
      <point x="136" y="36" type="line"/>
      <point x="238" y="396" type="line"/>
    </contour>
  </outline>
</glyph>
<glyph name="w" format="1">
  <advance width="413"/>
  <unicode hex="0077"/>
  <outline>
    <contour>
      <point x="394" y="396" type="line"/>
      <point x="314" y="0" type="line"/>
      <point x="296" y="0" type="line"/>
      <point x="207" y="349" type="line"/>
      <point x="118" y="0" type="line"/>
      <point x="100" y="0" type="line"/>
      <point x="20" y="396" type="line"/>
      <point x="39" y="396" type="line"/>
      <point x="109" y="37" type="line"/>
      <point x="207" y="405" type="line"/>
      <point x="305" y="37" type="line"/>
      <point x="376" y="396" type="line"/>
    </contour>
  </outline>
</glyph>
<glyph name="x" format="1">
  <advance width="269"/>
  <unicode hex="0078"/>
  <outline>
    <contour>
      <point x="135" y="232" type="curve"/>
      <point x="221" y="396" type="line"/>
      <point x="241" y="396" type="line"/>
      <point x="145" y="213" type="line"/>
      <point x="145" y="214"/>
      <point x="256" y="0"/>
      <point x="256" y="0" type="curve"/>
      <point x="236" y="0" type="line"/>
      <point x="135" y="194" type="line"/>
      <point x="33" y="0" type="line"/>
      <point x="13" y="0" type="line"/>
      <point x="125" y="213" type="line"/>
      <point x="30" y="396" type="line"/>
      <point x="50" y="396" type="line"/>
      <point x="50" y="396"/>
      <point x="135" y="233"/>
    </contour>
  </outline>
</glyph>
<glyph name="y" format="1">
  <advance width="273"/>
  <unicode hex="0079"/>
  <outline>
    <contour>
      <point x="258" y="396" type="line"/>
      <point x="102" y="-129" type="line" smooth="yes"/>
      <point x="90" y="-169"/>
      <point x="71" y="-189"/>
      <point x="47" y="-189" type="curve" smooth="yes"/>
      <point x="33" y="-189"/>
      <point x="26" y="-187"/>
      <point x="15" y="-181" type="curve"/>
      <point x="15" y="-161" type="line"/>
      <point x="25" y="-166"/>
      <point x="37" y="-169"/>
      <point x="47" y="-169" type="curve" smooth="yes"/>
      <point x="63" y="-169"/>
      <point x="75" y="-158"/>
      <point x="85" y="-124" type="curve" smooth="yes"/>
      <point x="129" y="22" type="line"/>
      <point x="14" y="396" type="line"/>
      <point x="33" y="396" type="line"/>
      <point x="138" y="53" type="line"/>
      <point x="239" y="396" type="line"/>
    </contour>
  </outline>
</glyph>
<glyph name="z" format="1">
  <advance width="238"/>
  <unicode hex="007A"/>
  <outline>
    <contour>
      <point x="218" y="396" type="line"/>
      <point x="42" y="18" type="line"/>
      <point x="209" y="18" type="line"/>
      <point x="209" y="0" type="line"/>
      <point x="14" y="0" type="line"/>
      <point x="191" y="378" type="line"/>
      <point x="39" y="378" type="line"/>
      <point x="39" y="396" type="line"/>
    </contour>
  </outline>
</glyph>
<glyph name="braceleft" format="1">
  <advance width="164"/>
  <unicode hex="007B"/>
  <outline>
    <contour>
      <point x="155" y="-178" type="line"/>
      <point x="91" y="-127"/>
      <point x="81" y="-84"/>
      <point x="81" y="89" type="curve" smooth="yes"/>
      <point x="81" y="210"/>
      <point x="78" y="276"/>
      <point x="25" y="276" type="curve"/>
      <point x="25" y="296" type="line"/>
      <point x="78" y="296"/>
      <point x="81" y="361"/>
      <point x="81" y="482" type="curve" smooth="yes"/>
      <point x="81" y="655"/>
      <point x="91" y="699"/>
      <point x="155" y="749" type="curve"/>
      <point x="155" y="725" type="line"/>
      <point x="103" y="680"/>
      <point x="99" y="636"/>
      <point x="99" y="496" type="curve" smooth="yes"/>
      <point x="99" y="365"/>
      <point x="96" y="300"/>
      <point x="51" y="286" type="curve"/>
      <point x="96" y="272"/>
      <point x="99" y="206"/>
      <point x="99" y="75" type="curve" smooth="yes"/>
      <point x="99" y="-66"/>
      <point x="105" y="-111"/>
      <point x="155" y="-154" type="curve"/>
    </contour>
  </outline>
</glyph>
<glyph name="braceright" format="1">
  <advance width="164"/>
  <unicode hex="007D"/>
  <outline>
    <contour>
      <point x="139" y="276" type="line"/>
      <point x="86" y="276"/>
      <point x="83" y="210"/>
      <point x="83" y="89" type="curve" smooth="yes"/>
      <point x="83" y="-84"/>
      <point x="73" y="-127"/>
      <point x="9" y="-178" type="curve"/>
      <point x="9" y="-154" type="line"/>
      <point x="61" y="-109"/>
      <point x="65" y="-66"/>
      <point x="65" y="75" type="curve" smooth="yes"/>
      <point x="65" y="206"/>
      <point x="69" y="270"/>
      <point x="113" y="286" type="curve"/>
      <point x="69" y="302"/>
      <point x="65" y="365"/>
      <point x="65" y="496" type="curve" smooth="yes"/>
      <point x="65" y="636"/>
      <point x="61" y="680"/>
      <point x="9" y="725" type="curve"/>
      <point x="9" y="749" type="line"/>
      <point x="73" y="699"/>
      <point x="83" y="655"/>
      <point x="83" y="482" type="curve" smooth="yes"/>
      <point x="83" y="361"/>
      <point x="86" y="296"/>
      <point x="139" y="296" type="curve"/>
    </contour>
  </outline>
</glyph>
<glyph name="asciitilde" format="1">
  <advance width="444"/>
  <unicode hex="007E"/>
  <outline>
    <contour>
      <point x="373" y="428" type="line"/>
      <point x="366" y="327"/>
      <point x="326" y="305"/>
      <point x="296" y="305" type="curve" smooth="yes"/>
      <point x="260" y="305"/>
      <point x="234" y="332"/>
      <point x="208" y="358" type="curve" smooth="yes"/>
      <point x="183" y="384"/>
      <point x="160" y="410"/>
      <point x="130" y="410" type="curve" smooth="yes"/>
      <point x="89" y="410"/>
      <point x="77" y="368"/>
      <point x="73" y="310" type="curve"/>
      <point x="51" y="310" type="line"/>
      <point x="55" y="382"/>
      <point x="77" y="430"/>
      <point x="132" y="430" type="curve" smooth="yes"/>
      <point x="168" y="430"/>
      <point x="195" y="401"/>
      <point x="222" y="374" type="curve" smooth="yes"/>
      <point x="246" y="349"/>
      <point x="269" y="325"/>
      <point x="297" y="325" type="curve" smooth="yes"/>
      <point x="320" y="325"/>
      <point x="346" y="349"/>
      <point x="351" y="428" type="curve"/>
    </contour>
  </outline>
</glyph>
<glyph name="exclamdown" format="1">
  <advance width="159"/>
  <unicode hex="00A1"/>
  <outline>
    <contour>
      <point x="66" y="730" type="line"/>
      <point x="93" y="730" type="line"/>
      <point x="93" y="674" type="line"/>
      <point x="66" y="674" type="line"/>
    </contour>
    <contour>
      <point x="70" y="495" type="line"/>
      <point x="74" y="627" type="line"/>
      <point x="85" y="627" type="line"/>
      <point x="89" y="495" type="line"/>
      <point x="89" y="0" type="line"/>
      <point x="70" y="0" type="line"/>
    </contour>
  </outline>
</glyph>
<glyph name="cent" format="1">
  <advance width="261"/>
  <unicode hex="00A2"/>
  <outline>
    <contour>
      <point x="154" y="408" type="line"/>
      <point x="206" y="404"/>
      <point x="229" y="364"/>
      <point x="238" y="332" type="curve"/>
      <point x="223" y="326" type="line"/>
      <point x="207" y="372"/>
      <point x="180" y="392"/>
      <point x="145" y="392" type="curve" smooth="yes"/>
      <point x="67" y="392"/>
      <point x="46" y="299"/>
      <point x="46" y="197" type="curve" smooth="yes"/>
      <point x="46" y="98"/>
      <point x="65" y="4"/>
      <point x="151" y="4" type="curve" smooth="yes"/>
      <point x="192" y="4"/>
      <point x="220" y="32"/>
      <point x="232" y="64" type="curve"/>
      <point x="247" y="57" type="line"/>
      <point x="230" y="17"/>
      <point x="199" y="-11"/>
      <point x="154" y="-12" type="curve"/>
      <point x="154" y="-79" type="line"/>
      <point x="135" y="-79" type="line"/>
      <point x="135" y="-11" type="line"/>
      <point x="53" y="-1"/>
      <point x="28" y="89"/>
      <point x="28" y="197" type="curve" smooth="yes"/>
      <point x="28" y="310"/>
      <point x="55" y="401"/>
      <point x="135" y="408" type="curve"/>
      <point x="135" y="485" type="line"/>
      <point x="154" y="485" type="line"/>
    </contour>
  </outline>
</glyph>
<glyph name="sterling" format="1">
  <advance width="311"/>
  <unicode hex="00A3"/>
  <outline>
    <contour>
      <point x="290" y="137" type="line"/>
      <point x="289" y="40"/>
      <point x="282" y="-12"/>
      <point x="233" y="-12" type="curve" smooth="yes"/>
      <point x="201" y="-12"/>
      <point x="176" y="24"/>
      <point x="151" y="62" type="curve"/>
      <point x="135" y="16"/>
      <point x="110" y="-12"/>
      <point x="82" y="-12" type="curve" smooth="yes"/>
      <point x="50" y="-12"/>
      <point x="26" y="17"/>
      <point x="26" y="64" type="curve" smooth="yes"/>
      <point x="26" y="109"/>
      <point x="46" y="141"/>
      <point x="80" y="141" type="curve" smooth="yes"/>
      <point x="100" y="141"/>
      <point x="123" y="123"/>
      <point x="143" y="100" type="curve"/>
      <point x="147" y="123"/>
      <point x="150" y="148"/>
      <point x="150" y="175" type="curve" smooth="yes"/>
      <point x="150" y="250"/>
      <point x="110" y="333"/>
      <point x="110" y="333" type="curve"/>
      <point x="52" y="333" type="line"/>
      <point x="52" y="351" type="line"/>
      <point x="101" y="351" type="line"/>
      <point x="68" y="423"/>
      <point x="45" y="488"/>
      <point x="45" y="564" type="curve" smooth="yes"/>
      <point x="45" y="673"/>
      <point x="95" y="742"/>
      <point x="164" y="742" type="curve" smooth="yes"/>
      <point x="237" y="742"/>
      <point x="270" y="672"/>
      <point x="277" y="570" type="curve"/>
      <point x="260" y="570" type="line"/>
      <point x="253" y="658"/>
      <point x="229" y="725"/>
      <point x="164" y="725" type="curve" smooth="yes"/>
      <point x="102" y="725"/>
      <point x="63" y="661"/>
      <point x="63" y="565" type="curve" smooth="yes"/>
      <point x="63" y="491"/>
      <point x="86" y="431"/>
      <point x="120" y="351" type="curve"/>
      <point x="231" y="351" type="line"/>
      <point x="231" y="333" type="line"/>
      <point x="129" y="333" type="line"/>
      <point x="143" y="298"/>
      <point x="168" y="242"/>
      <point x="168" y="176" type="curve" smooth="yes"/>
      <point x="168" y="141"/>
      <point x="164" y="110"/>
      <point x="157" y="83" type="curve"/>
      <point x="180" y="52"/>
      <point x="204" y="5"/>
      <point x="233" y="5" type="curve" smooth="yes"/>
      <point x="269" y="5"/>
      <point x="272" y="56"/>
      <point x="273" y="137" type="curve"/>
    </contour>
    <contour>
      <point x="138" y="80" type="curve"/>
      <point x="120" y="103"/>
      <point x="100" y="124"/>
      <point x="80" y="124" type="curve" smooth="yes"/>
      <point x="54" y="124"/>
      <point x="43" y="99"/>
      <point x="43" y="64" type="curve" smooth="yes"/>
      <point x="43" y="29"/>
      <point x="59" y="5"/>
      <point x="83" y="5" type="curve" smooth="yes"/>
      <point x="104" y="5"/>
      <point x="125" y="34"/>
    </contour>
  </outline>
</glyph>
<glyph name="yen" format="1">
  <advance width="369"/>
  <unicode hex="00A5"/>
  <outline>
    <contour>
      <point x="353" y="730" type="line"/>
      <point x="190" y="357" type="line"/>
      <point x="190" y="260" type="line"/>
      <point x="308" y="260" type="line"/>
      <point x="308" y="240" type="line"/>
      <point x="190" y="240" type="line"/>
      <point x="190" y="144" type="line"/>
      <point x="308" y="144" type="line"/>
      <point x="308" y="124" type="line"/>
      <point x="190" y="124" type="line"/>
      <point x="190" y="0" type="line"/>
      <point x="170" y="0" type="line"/>
      <point x="170" y="124" type="line"/>
      <point x="52" y="124" type="line"/>
      <point x="52" y="144" type="line"/>
      <point x="170" y="144" type="line"/>
      <point x="170" y="240" type="line"/>
      <point x="52" y="240" type="line"/>
      <point x="52" y="260" type="line"/>
      <point x="170" y="260" type="line"/>
      <point x="170" y="357" type="line"/>
      <point x="6" y="730" type="line"/>
      <point x="26" y="730" type="line"/>
      <point x="176" y="387" type="line"/>
      <point x="180" y="378" type="line"/>
      <point x="184" y="387" type="line"/>
      <point x="333" y="730" type="line"/>
    </contour>
  </outline>
</glyph>
<glyph name="brokenbar" format="1">
  <advance width="173"/>
  <unicode hex="00A6"/>
  <outline>
    <contour>
      <point x="77" y="351" type="line"/>
      <point x="77" y="730" type="line"/>
      <point x="96" y="730" type="line"/>
      <point x="96" y="351" type="line"/>
    </contour>
    <contour>
      <point x="96" y="200" type="line"/>
      <point x="96" y="-179" type="line"/>
      <point x="77" y="-179" type="line"/>
      <point x="77" y="200" type="line"/>
    </contour>
  </outline>
</glyph>
<glyph name="section" format="1">
  <advance width="370"/>
  <unicode hex="00A7"/>
  <outline>
    <contour>
      <point x="349" y="237" type="curve" smooth="yes"/>
      <point x="349" y="158"/>
      <point x="311" y="98"/>
      <point x="267" y="58" type="curve"/>
      <point x="289" y="33"/>
      <point x="304" y="-1"/>
      <point x="304" y="-50" type="curve" smooth="yes"/>
      <point x="304" y="-136"/>
      <point x="247" y="-190"/>
      <point x="178" y="-190" type="curve" smooth="yes"/>
      <point x="110" y="-190"/>
      <point x="75" y="-150"/>
      <point x="58" y="-105" type="curve"/>
      <point x="74" y="-95" type="line"/>
      <point x="85" y="-130"/>
      <point x="114" y="-173"/>
      <point x="178" y="-173" type="curve" smooth="yes"/>
      <point x="238" y="-173"/>
      <point x="286" y="-125"/>
      <point x="286" y="-50" type="curve" smooth="yes"/>
      <point x="286" y="41"/>
      <point x="224" y="76"/>
      <point x="157" y="113" type="curve" smooth="yes"/>
      <point x="87" y="152"/>
      <point x="20" y="200"/>
      <point x="20" y="315" type="curve" smooth="yes"/>
      <point x="20" y="394"/>
      <point x="58" y="454"/>
      <point x="102" y="493" type="curve"/>
      <point x="80" y="519"/>
      <point x="65" y="553"/>
      <point x="65" y="602" type="curve" smooth="yes"/>
      <point x="65" y="688"/>
      <point x="122" y="742"/>
      <point x="191" y="742" type="curve" smooth="yes"/>
      <point x="259" y="742"/>
      <point x="294" y="702"/>
      <point x="311" y="657" type="curve"/>
      <point x="295" y="649" type="line"/>
      <point x="283" y="684"/>
      <point x="255" y="725"/>
      <point x="191" y="725" type="curve" smooth="yes"/>
      <point x="131" y="725"/>
      <point x="83" y="677"/>
      <point x="83" y="602" type="curve" smooth="yes"/>
      <point x="83" y="511"/>
      <point x="145" y="477"/>
      <point x="212" y="439" type="curve" smooth="yes"/>
      <point x="282" y="400"/>
      <point x="349" y="352"/>
    </contour>
    <contour>
      <point x="331" y="237" type="curve" smooth="yes"/>
      <point x="331" y="337"/>
      <point x="273" y="383"/>
      <point x="208" y="420" type="curve" smooth="yes"/>
      <point x="177" y="438"/>
      <point x="142" y="454"/>
      <point x="114" y="480" type="curve"/>
      <point x="69" y="439"/>
      <point x="38" y="382"/>
      <point x="38" y="315" type="curve" smooth="yes"/>
      <point x="38" y="215"/>
      <point x="96" y="169"/>
      <point x="161" y="132" type="curve" smooth="yes"/>
      <point x="192" y="114"/>
      <point x="227" y="98"/>
      <point x="255" y="72" type="curve"/>
      <point x="300" y="113"/>
      <point x="331" y="170"/>
    </contour>
  </outline>
</glyph>
<glyph name="dieresis" format="1">
  <advance width="410"/>
  <unicode hex="00A8"/>
  <outline>
    <contour>
      <point x="268" y="484" type="line"/>
      <point x="249" y="484" type="line"/>
      <point x="249" y="568" type="line"/>
      <point x="268" y="568" type="line"/>
    </contour>
    <contour>
      <point x="160" y="484" type="line"/>
      <point x="141" y="484" type="line"/>
      <point x="141" y="568" type="line"/>
      <point x="160" y="568" type="line"/>
    </contour>
  </outline>
</glyph>
<glyph name="ordfeminine" format="1">
  <advance width="290"/>
  <unicode hex="00AA"/>
  <outline>
    <contour>
      <point x="242" y="400" type="line"/>
      <point x="225" y="400" type="line"/>
      <point x="225" y="434" type="line"/>
      <point x="198" y="407"/>
      <point x="166" y="392"/>
      <point x="134" y="392" type="curve" smooth="yes"/>
      <point x="89" y="392"/>
      <point x="42" y="416"/>
      <point x="42" y="494" type="curve" smooth="yes"/>
      <point x="42" y="574"/>
      <point x="114" y="614"/>
      <point x="197" y="614" type="curve" smooth="yes"/>
      <point x="225" y="614" type="line"/>
      <point x="225" y="635" type="line" smooth="yes"/>
      <point x="225" y="700"/>
      <point x="206" y="732"/>
      <point x="155" y="732" type="curve" smooth="yes"/>
      <point x="112" y="732"/>
      <point x="85" y="714"/>
      <point x="67" y="698" type="curve"/>
      <point x="57" y="711" type="line"/>
      <point x="77" y="728"/>
      <point x="107" y="749"/>
      <point x="157" y="749" type="curve" smooth="yes"/>
      <point x="222" y="749"/>
      <point x="242" y="701"/>
      <point x="242" y="637" type="curve" smooth="yes"/>
    </contour>
    <contour>
      <point x="250" y="319" type="line"/>
      <point x="43" y="319" type="line"/>
      <point x="43" y="336" type="line"/>
      <point x="250" y="336" type="line"/>
    </contour>
    <contour>
      <point x="225" y="453" type="curve"/>
      <point x="225" y="598" type="line"/>
      <point x="197" y="598" type="line" smooth="yes"/>
      <point x="110" y="598"/>
      <point x="58" y="555"/>
      <point x="58" y="495" type="curve" smooth="yes"/>
      <point x="58" y="430"/>
      <point x="95" y="408"/>
      <point x="133" y="408" type="curve" smooth="yes"/>
      <point x="155" y="408"/>
      <point x="181" y="412"/>
    </contour>
  </outline>
</glyph>
<glyph name="guillemotleft" format="1">
  <advance width="204"/>
  <unicode hex="00AB"/>
  <outline>
    <contour>
      <point x="188" y="330" type="line"/>
      <point x="188" y="307" type="line"/>
      <point x="120" y="205" type="line"/>
      <point x="184" y="105" type="line"/>
      <point x="184" y="80" type="line"/>
      <point x="104" y="194" type="line"/>
      <point x="104" y="216" type="line"/>
    </contour>
    <contour>
      <point x="96" y="330" type="line"/>
      <point x="96" y="307" type="line"/>
      <point x="28" y="205" type="line"/>
      <point x="92" y="105" type="line"/>
      <point x="92" y="80" type="line"/>
      <point x="12" y="194" type="line"/>
      <point x="12" y="216" type="line"/>
    </contour>
  </outline>
</glyph>
<glyph name="degree" format="1">
  <advance width="268"/>
  <unicode hex="00B0"/>
  <outline>
    <contour>
      <point x="134" y="521" type="curve" smooth="yes"/>
      <point x="70" y="521"/>
      <point x="22" y="569"/>
      <point x="22" y="633" type="curve" smooth="yes"/>
      <point x="22" y="697"/>
      <point x="70" y="746"/>
      <point x="134" y="746" type="curve" smooth="yes"/>
      <point x="198" y="746"/>
      <point x="247" y="697"/>
      <point x="247" y="633" type="curve" smooth="yes"/>
      <point x="247" y="569"/>
      <point x="198" y="521"/>
    </contour>
    <contour>
      <point x="134" y="729" type="curve" smooth="yes"/>
      <point x="80" y="729"/>
      <point x="39" y="687"/>
      <point x="39" y="633" type="curve" smooth="yes"/>
      <point x="39" y="579"/>
      <point x="80" y="538"/>
      <point x="134" y="538" type="curve" smooth="yes"/>
      <point x="188" y="538"/>
      <point x="230" y="579"/>
      <point x="230" y="633" type="curve" smooth="yes"/>
      <point x="230" y="687"/>
      <point x="188" y="729"/>
    </contour>
  </outline>
</glyph>
<glyph name="twosuperior" format="1">
  <advance width="249"/>
  <unicode hex="00B2"/>
  <outline>
    <contour>
      <point x="49" y="359" type="line"/>
      <point x="152" y="586" type="line" smooth="yes"/>
      <point x="162" y="608"/>
      <point x="174" y="635"/>
      <point x="174" y="669" type="curve" smooth="yes"/>
      <point x="174" y="692"/>
      <point x="161" y="724"/>
      <point x="124" y="724" type="curve" smooth="yes"/>
      <point x="90" y="724"/>
      <point x="73" y="700"/>
      <point x="73" y="671" type="curve" smooth="yes"/>
      <point x="73" y="658" type="line"/>
      <point x="56" y="658" type="line"/>
      <point x="56" y="671" type="line" smooth="yes"/>
      <point x="56" y="703"/>
      <point x="75" y="740"/>
      <point x="124" y="740" type="curve" smooth="yes"/>
      <point x="178" y="740"/>
      <point x="191" y="694"/>
      <point x="191" y="670" type="curve" smooth="yes"/>
      <point x="191" y="645"/>
      <point x="186" y="620"/>
      <point x="173" y="591" type="curve" smooth="yes"/>
      <point x="76" y="376" type="line"/>
      <point x="191" y="376" type="line"/>
      <point x="191" y="359" type="line"/>
    </contour>
  </outline>
</glyph>
<glyph name="acute" format="1">
  <advance width="410"/>
  <unicode hex="00B4"/>
  <outline>
    <contour>
      <point x="242" y="614" type="line"/>
      <point x="185" y="484" type="line"/>
      <point x="167" y="484" type="line"/>
      <point x="223" y="614" type="line"/>
    </contour>
  </outline>
</glyph>
<glyph name="paragraph" format="1">
  <advance width="440"/>
  <unicode hex="00B6"/>
  <outline>
    <contour>
      <point x="371" y="-179" type="line"/>
      <point x="352" y="-179" type="line"/>
      <point x="352" y="714" type="line"/>
      <point x="300" y="714" type="line"/>
      <point x="300" y="-179" type="line"/>
      <point x="281" y="-179" type="line"/>
      <point x="281" y="247" type="line"/>
      <point x="266" y="247" type="line" smooth="yes"/>
      <point x="129" y="247"/>
      <point x="30" y="347"/>
      <point x="30" y="489" type="curve" smooth="yes"/>
      <point x="30" y="624"/>
      <point x="113" y="730"/>
      <point x="275" y="730" type="curve" smooth="yes"/>
      <point x="371" y="730" type="line"/>
    </contour>
    <contour>
      <point x="281" y="263" type="line"/>
      <point x="281" y="714" type="line"/>
      <point x="268" y="714" type="line" smooth="yes"/>
      <point x="124" y="714"/>
      <point x="48" y="616"/>
      <point x="48" y="489" type="curve" smooth="yes"/>
      <point x="48" y="362"/>
      <point x="130" y="263"/>
      <point x="271" y="263" type="curve" smooth="yes"/>
    </contour>
  </outline>
</glyph>
<glyph name="periodcentered" format="1">
  <advance width="93"/>
  <unicode hex="00B7"/>
  <outline>
    <contour>
      <point x="61" y="341" type="line"/>
      <point x="42" y="341" type="line"/>
      <point x="42" y="396" type="line"/>
      <point x="61" y="396" type="line"/>
    </contour>
  </outline>
</glyph>
<glyph name="cedilla" format="1">
  <advance width="410"/>
  <unicode hex="00B8"/>
  <outline>
    <contour>
      <point x="216" y="0" type="line"/>
      <point x="192" y="-54" type="line"/>
      <point x="196" y="-53"/>
      <point x="203" y="-51"/>
      <point x="211" y="-51" type="curve" smooth="yes"/>
      <point x="232" y="-51"/>
      <point x="263" y="-65"/>
      <point x="263" y="-109" type="curve" smooth="yes"/>
      <point x="263" y="-159"/>
      <point x="236" y="-179"/>
      <point x="206" y="-179" type="curve" smooth="yes"/>
      <point x="185" y="-179"/>
      <point x="162" y="-164"/>
      <point x="146" y="-142" type="curve"/>
      <point x="157" y="-131" type="line"/>
      <point x="171" y="-150"/>
      <point x="188" y="-163"/>
      <point x="206" y="-163" type="curve" smooth="yes"/>
      <point x="231" y="-163"/>
      <point x="247" y="-146"/>
      <point x="247" y="-110" type="curve" smooth="yes"/>
      <point x="247" y="-86"/>
      <point x="235" y="-67"/>
      <point x="210" y="-67" type="curve" smooth="yes"/>
      <point x="197" y="-67"/>
      <point x="185" y="-71"/>
      <point x="174" y="-74" type="curve"/>
      <point x="171" y="-65" type="line"/>
      <point x="199" y="0" type="line"/>
    </contour>
  </outline>
</glyph>
<glyph name="ordmasculine" format="1">
  <advance width="301"/>
  <unicode hex="00BA"/>
  <outline>
    <contour>
      <point x="250" y="566" type="curve" smooth="yes"/>
      <point x="250" y="467"/>
      <point x="226" y="392"/>
      <point x="149" y="392" type="curve" smooth="yes"/>
      <point x="72" y="392"/>
      <point x="49" y="467"/>
      <point x="49" y="566" type="curve" smooth="yes"/>
      <point x="49" y="663"/>
      <point x="72" y="743"/>
      <point x="149" y="743" type="curve" smooth="yes"/>
      <point x="226" y="743"/>
      <point x="250" y="663"/>
    </contour>
    <contour>
      <point x="244" y="319" type="line"/>
      <point x="47" y="319" type="line"/>
      <point x="47" y="336" type="line"/>
      <point x="244" y="336" type="line"/>
    </contour>
    <contour>
      <point x="233" y="566" type="curve" smooth="yes"/>
      <point x="233" y="651"/>
      <point x="216" y="727"/>
      <point x="149" y="727" type="curve" smooth="yes"/>
      <point x="82" y="727"/>
      <point x="66" y="651"/>
      <point x="66" y="566" type="curve" smooth="yes"/>
      <point x="66" y="479"/>
      <point x="83" y="408"/>
      <point x="149" y="408" type="curve" smooth="yes"/>
      <point x="215" y="408"/>
      <point x="233" y="479"/>
    </contour>
  </outline>
</glyph>
<glyph name="guillemotright" format="1">
  <advance width="204"/>
  <unicode hex="00BB"/>
  <outline>
    <contour>
      <point x="112" y="330" type="line"/>
      <point x="196" y="216" type="line"/>
      <point x="196" y="194" type="line"/>
      <point x="116" y="80" type="line"/>
      <point x="116" y="105" type="line"/>
      <point x="181" y="205" type="line"/>
      <point x="112" y="307" type="line"/>
    </contour>
    <contour>
      <point x="20" y="330" type="line"/>
      <point x="104" y="216" type="line"/>
      <point x="104" y="194" type="line"/>
      <point x="24" y="80" type="line"/>
      <point x="24" y="105" type="line"/>
      <point x="89" y="205" type="line"/>
      <point x="20" y="307" type="line"/>
    </contour>
  </outline>
</glyph>
<glyph name="onequarter" format="1">
  <advance width="433"/>
  <unicode hex="00BC"/>
  <outline>
    <contour>
      <point x="92" y="355" type="line"/>
      <point x="92" y="684" type="line"/>
      <point x="88" y="668"/>
      <point x="77" y="648"/>
      <point x="53" y="632" type="curve"/>
      <point x="53" y="648" type="line"/>
      <point x="72" y="659"/>
      <point x="90" y="702"/>
      <point x="94" y="730" type="curve"/>
      <point x="109" y="730" type="line"/>
      <point x="109" y="355" type="line"/>
    </contour>
    <contour>
      <point x="368" y="730" type="line"/>
      <point x="70" y="0" type="line"/>
      <point x="52" y="0" type="line"/>
      <point x="350" y="730" type="line"/>
    </contour>
    <contour>
      <point x="361" y="103" type="line"/>
      <point x="361" y="0" type="line"/>
      <point x="344" y="0" type="line"/>
      <point x="344" y="103" type="line"/>
      <point x="239" y="103" type="line"/>
      <point x="239" y="116" type="line"/>
      <point x="348" y="375" type="line"/>
      <point x="361" y="375" type="line"/>
      <point x="361" y="121" type="line"/>
      <point x="397" y="121" type="line"/>
      <point x="397" y="103" type="line"/>
    </contour>
    <contour>
      <point x="259" y="121" type="line"/>
      <point x="344" y="121" type="line"/>
      <point x="344" y="322" type="line"/>
    </contour>
  </outline>
</glyph>
<glyph name="onehalf" format="1">
  <advance width="469"/>
  <unicode hex="00BD"/>
  <outline>
    <contour>
      <point x="92" y="355" type="line"/>
      <point x="92" y="684" type="line"/>
      <point x="88" y="668"/>
      <point x="77" y="648"/>
      <point x="53" y="632" type="curve"/>
      <point x="53" y="648" type="line"/>
      <point x="72" y="659"/>
      <point x="90" y="702"/>
      <point x="94" y="730" type="curve"/>
      <point x="109" y="730" type="line"/>
      <point x="109" y="355" type="line"/>
    </contour>
    <contour>
      <point x="368" y="730" type="line"/>
      <point x="70" y="0" type="line"/>
      <point x="52" y="0" type="line"/>
      <point x="350" y="730" type="line"/>
    </contour>
    <contour>
      <point x="274" y="0" type="line"/>
      <point x="377" y="227" type="line" smooth="yes"/>
      <point x="387" y="249"/>
      <point x="399" y="276"/>
      <point x="399" y="310" type="curve" smooth="yes"/>
      <point x="399" y="333"/>
      <point x="386" y="365"/>
      <point x="349" y="365" type="curve" smooth="yes"/>
      <point x="315" y="365"/>
      <point x="298" y="341"/>
      <point x="298" y="312" type="curve" smooth="yes"/>
      <point x="298" y="299" type="line"/>
      <point x="281" y="299" type="line"/>
      <point x="281" y="312" type="line" smooth="yes"/>
      <point x="281" y="344"/>
      <point x="300" y="381"/>
      <point x="349" y="381" type="curve" smooth="yes"/>
      <point x="403" y="381"/>
      <point x="416" y="335"/>
      <point x="416" y="311" type="curve" smooth="yes"/>
      <point x="416" y="286"/>
      <point x="411" y="261"/>
      <point x="398" y="232" type="curve" smooth="yes"/>
      <point x="301" y="17" type="line"/>
      <point x="416" y="17" type="line"/>
      <point x="416" y="0" type="line"/>
    </contour>
  </outline>
</glyph>
<glyph name="threequarters" format="1">
  <advance width="473"/>
  <unicode hex="00BE"/>
  <outline>
    <contour>
      <point x="101" y="561" type="line"/>
      <point x="110" y="561" type="line" smooth="yes"/>
      <point x="154" y="561"/>
      <point x="177" y="602"/>
      <point x="177" y="651" type="curve" smooth="yes"/>
      <point x="177" y="698"/>
      <point x="154" y="724"/>
      <point x="127" y="724" type="curve" smooth="yes"/>
      <point x="106" y="724"/>
      <point x="91" y="714"/>
      <point x="78" y="683" type="curve"/>
      <point x="62" y="691" type="line"/>
      <point x="77" y="727"/>
      <point x="102" y="741"/>
      <point x="127" y="741" type="curve" smooth="yes"/>
      <point x="162" y="741"/>
      <point x="194" y="710"/>
      <point x="194" y="652" type="curve" smooth="yes"/>
      <point x="194" y="604"/>
      <point x="176" y="569"/>
      <point x="145" y="554" type="curve"/>
      <point x="184" y="539"/>
      <point x="204" y="507"/>
      <point x="204" y="449" type="curve" smooth="yes"/>
      <point x="204" y="387"/>
      <point x="164" y="353"/>
      <point x="128" y="353" type="curve" smooth="yes"/>
      <point x="105" y="353"/>
      <point x="87" y="360"/>
      <point x="60" y="385" type="curve"/>
      <point x="71" y="399" type="line"/>
      <point x="94" y="376"/>
      <point x="112" y="370"/>
      <point x="129" y="370" type="curve" smooth="yes"/>
      <point x="156" y="370"/>
      <point x="186" y="399"/>
      <point x="186" y="450" type="curve" smooth="yes"/>
      <point x="186" y="500"/>
      <point x="169" y="545"/>
      <point x="101" y="545" type="curve"/>
    </contour>
    <contour>
      <point x="419" y="730" type="line"/>
      <point x="121" y="0" type="line"/>
      <point x="103" y="0" type="line"/>
      <point x="401" y="730" type="line"/>
    </contour>
    <contour>
      <point x="402" y="103" type="line"/>
      <point x="402" y="0" type="line"/>
      <point x="385" y="0" type="line"/>
      <point x="385" y="103" type="line"/>
      <point x="280" y="103" type="line"/>
      <point x="280" y="116" type="line"/>
      <point x="389" y="375" type="line"/>
      <point x="402" y="375" type="line"/>
      <point x="402" y="121" type="line"/>
      <point x="438" y="121" type="line"/>
      <point x="438" y="103" type="line"/>
    </contour>
    <contour>
      <point x="300" y="121" type="line"/>
      <point x="385" y="121" type="line"/>
      <point x="385" y="322" type="line"/>
    </contour>
  </outline>
</glyph>
<glyph name="Agrave" format="1">
  <advance width="433"/>
  <unicode hex="00C0"/>
  <outline>
    <contour>
      <point x="420" y="0" type="line"/>
      <point x="401" y="0" type="line"/>
      <point x="352" y="185" type="line"/>
      <point x="85" y="185" type="line"/>
      <point x="37" y="0" type="line"/>
      <point x="18" y="0" type="line"/>
      <point x="213" y="743" type="line"/>
      <point x="228" y="743" type="line"/>
    </contour>
    <contour>
      <point x="347" y="203" type="line"/>
      <point x="220" y="710" type="line"/>
      <point x="90" y="203" type="line"/>
    </contour>
    <component base="grave" xOffset="-16" yOffset="306"/>
  </outline>
</glyph>
<glyph name="Acircumflex" format="1">
  <advance width="433"/>
  <unicode hex="00C2"/>
  <outline>
    <contour>
      <point x="420" y="0" type="line"/>
      <point x="401" y="0" type="line"/>
      <point x="352" y="185" type="line"/>
      <point x="85" y="185" type="line"/>
      <point x="37" y="0" type="line"/>
      <point x="18" y="0" type="line"/>
      <point x="213" y="743" type="line"/>
      <point x="228" y="743" type="line"/>
    </contour>
    <contour>
      <point x="347" y="203" type="line"/>
      <point x="220" y="710" type="line"/>
      <point x="90" y="203" type="line"/>
    </contour>
    <component base="circumflex" xOffset="17" yOffset="306"/>
  </outline>
</glyph>
<glyph name="Adieresis" format="1">
  <advance width="433"/>
  <unicode hex="00C4"/>
  <outline>
    <contour>
      <point x="422" y="2" type="line"/>
      <point x="403" y="2" type="line"/>
      <point x="354" y="187" type="line"/>
      <point x="87" y="187" type="line"/>
      <point x="39" y="2" type="line"/>
      <point x="20" y="2" type="line"/>
      <point x="215" y="745" type="line"/>
      <point x="230" y="745" type="line"/>
    </contour>
    <contour>
      <point x="349" y="205" type="line"/>
      <point x="222" y="712" type="line"/>
      <point x="92" y="205" type="line"/>
    </contour>
    <component base="dieresis" xOffset="-87" yOffset="162"/>
  </outline>
</glyph>
<glyph name="Aring" format="1">
  <advance width="433"/>
  <unicode hex="00C5"/>
  <outline>
    <contour>
      <point x="420" y="0" type="line"/>
      <point x="401" y="0" type="line"/>
      <point x="352" y="185" type="line"/>
      <point x="85" y="185" type="line"/>
      <point x="37" y="0" type="line"/>
      <point x="18" y="0" type="line"/>
      <point x="208" y="726" type="line"/>
      <point x="179" y="735"/>
      <point x="163" y="770"/>
      <point x="163" y="817" type="curve" smooth="yes"/>
      <point x="163" y="870"/>
      <point x="184" y="909"/>
      <point x="220" y="909" type="curve" smooth="yes"/>
      <point x="256" y="909"/>
      <point x="277" y="870"/>
      <point x="277" y="817" type="curve" smooth="yes"/>
      <point x="277" y="770"/>
      <point x="261" y="735"/>
      <point x="232" y="726" type="curve"/>
    </contour>
    <contour>
      <point x="260" y="817" type="curve" smooth="yes"/>
      <point x="260" y="858"/>
      <point x="246" y="892"/>
      <point x="220" y="892" type="curve" smooth="yes"/>
      <point x="194" y="892"/>
      <point x="180" y="858"/>
      <point x="180" y="817" type="curve" smooth="yes"/>
      <point x="180" y="776"/>
      <point x="194" y="742"/>
      <point x="220" y="742" type="curve" smooth="yes"/>
      <point x="246" y="742"/>
      <point x="260" y="776"/>
    </contour>
    <contour>
      <point x="347" y="203" type="line"/>
      <point x="220" y="710" type="line"/>
      <point x="90" y="203" type="line"/>
    </contour>
  </outline>
</glyph>
<glyph name="AE" format="1">
  <advance width="588"/>
  <unicode hex="00C6"/>
  <outline>
    <contour>
      <point x="562" y="0" type="line"/>
      <point x="321" y="0" type="line"/>
      <point x="321" y="185" type="line"/>
      <point x="111" y="185" type="line"/>
      <point x="37" y="0" type="line"/>
      <point x="18" y="0" type="line"/>
      <point x="310" y="730" type="line"/>
      <point x="553" y="730" type="line"/>
      <point x="553" y="713" type="line"/>
      <point x="340" y="713" type="line"/>
      <point x="340" y="380" type="line"/>
      <point x="526" y="380" type="line"/>
      <point x="526" y="361" type="line"/>
      <point x="340" y="361" type="line"/>
      <point x="340" y="17" type="line"/>
      <point x="562" y="17" type="line"/>
    </contour>
    <contour>
      <point x="321" y="203" type="line"/>
      <point x="321" y="707" type="line"/>
      <point x="118" y="203" type="line"/>
    </contour>
  </outline>
</glyph>
<glyph name="Ccedilla" format="1">
  <advance width="367"/>
  <unicode hex="00C7"/>
  <outline>
    <contour>
      <point x="350" y="65" type="line"/>
      <point x="329" y="30"/>
      <point x="292" y="-10"/>
      <point x="229" y="-12" type="curve"/>
      <point x="210" y="-54" type="line"/>
      <point x="214" y="-53"/>
      <point x="221" y="-51"/>
      <point x="229" y="-51" type="curve" smooth="yes"/>
      <point x="250" y="-51"/>
      <point x="281" y="-65"/>
      <point x="281" y="-109" type="curve" smooth="yes"/>
      <point x="281" y="-159"/>
      <point x="254" y="-179"/>
      <point x="224" y="-179" type="curve" smooth="yes"/>
      <point x="203" y="-179"/>
      <point x="180" y="-164"/>
      <point x="164" y="-142" type="curve"/>
      <point x="175" y="-131" type="line"/>
      <point x="189" y="-150"/>
      <point x="206" y="-163"/>
      <point x="224" y="-163" type="curve" smooth="yes"/>
      <point x="249" y="-163"/>
      <point x="265" y="-146"/>
      <point x="265" y="-110" type="curve" smooth="yes"/>
      <point x="265" y="-86"/>
      <point x="253" y="-67"/>
      <point x="228" y="-67" type="curve" smooth="yes"/>
      <point x="215" y="-67"/>
      <point x="203" y="-71"/>
      <point x="192" y="-74" type="curve"/>
      <point x="189" y="-65" type="line"/>
      <point x="212" y="-12" type="line"/>
      <point x="84" y="-3"/>
      <point x="38" y="150"/>
      <point x="38" y="362" type="curve" smooth="yes"/>
      <point x="38" y="618"/>
      <point x="104" y="742"/>
      <point x="223" y="742" type="curve" smooth="yes"/>
      <point x="283" y="742"/>
      <point x="324" y="706"/>
      <point x="345" y="665" type="curve"/>
      <point x="330" y="656" type="line"/>
      <point x="306" y="698"/>
      <point x="273" y="725"/>
      <point x="223" y="725" type="curve" smooth="yes"/>
      <point x="113" y="725"/>
      <point x="57" y="595"/>
      <point x="57" y="362" type="curve" smooth="yes"/>
      <point x="57" y="148"/>
      <point x="106" y="5"/>
      <point x="223" y="5" type="curve" smooth="yes"/>
      <point x="272" y="5"/>
      <point x="309" y="35"/>
      <point x="334" y="75" type="curve"/>
    </contour>
  </outline>
</glyph>
<glyph name="Eth" format="1">
  <advance width="416"/>
  <unicode hex="00D0"/>
  <outline>
    <contour>
      <point x="378" y="372" type="curve" smooth="yes"/>
      <point x="378" y="142"/>
      <point x="284" y="0"/>
      <point x="118" y="0" type="curve" smooth="yes"/>
      <point x="62" y="0" type="line"/>
      <point x="62" y="372" type="line"/>
      <point x="18" y="372" type="line"/>
      <point x="18" y="390" type="line"/>
      <point x="62" y="390" type="line"/>
      <point x="62" y="730" type="line"/>
      <point x="121" y="730" type="line" smooth="yes"/>
      <point x="301" y="730"/>
      <point x="378" y="568"/>
    </contour>
    <contour>
      <point x="359" y="372" type="curve" smooth="yes"/>
      <point x="359" y="554"/>
      <point x="290" y="713"/>
      <point x="121" y="713" type="curve" smooth="yes"/>
      <point x="80" y="713" type="line"/>
      <point x="80" y="390" type="line"/>
      <point x="168" y="390" type="line"/>
      <point x="168" y="372" type="line"/>
      <point x="80" y="372" type="line"/>
      <point x="80" y="17" type="line"/>
      <point x="118" y="17" type="line" smooth="yes"/>
      <point x="281" y="17"/>
      <point x="359" y="168"/>
    </contour>
  </outline>
</glyph>
<glyph name="Odieresis" format="1">
  <advance width="447"/>
  <unicode hex="00D6"/>
  <outline>
    <contour>
      <point x="413" y="646" type="line"/>
      <point x="394" y="646" type="line"/>
      <point x="394" y="730" type="line"/>
      <point x="413" y="730" type="line"/>
    </contour>
    <contour>
      <point x="53" y="646" type="line"/>
      <point x="34" y="646" type="line"/>
      <point x="34" y="730" type="line"/>
      <point x="53" y="730" type="line"/>
    </contour>
    <contour>
      <point x="225" y="-12" type="curve" smooth="yes"/>
      <point x="88" y="-12"/>
      <point x="40" y="146"/>
      <point x="40" y="363" type="curve" smooth="yes"/>
      <point x="40" y="579"/>
      <point x="88" y="742"/>
      <point x="225" y="742" type="curve" smooth="yes"/>
      <point x="354" y="742"/>
      <point x="411" y="579"/>
      <point x="411" y="363" type="curve" smooth="yes"/>
      <point x="411" y="146"/>
      <point x="358" y="-12"/>
    </contour>
    <contour>
      <point x="225" y="725" type="curve" smooth="yes"/>
      <point x="103" y="725"/>
      <point x="59" y="567"/>
      <point x="59" y="363" type="curve" smooth="yes"/>
      <point x="59" y="159"/>
      <point x="103" y="5"/>
      <point x="225" y="5" type="curve" smooth="yes"/>
      <point x="345" y="5"/>
      <point x="392" y="159"/>
      <point x="392" y="363" type="curve" smooth="yes"/>
      <point x="392" y="567"/>
      <point x="341" y="725"/>
    </contour>
  </outline>
</glyph>
<glyph name="multiply" format="1">
  <advance width="290"/>
  <unicode hex="00D7"/>
  <outline>
    <contour>
      <point x="156" y="331" type="line"/>
      <point x="239" y="187" type="line"/>
      <point x="226" y="179" type="line"/>
      <point x="147" y="315" type="line"/>
      <point x="66" y="179" type="line"/>
      <point x="53" y="187" type="line"/>
      <point x="138" y="330" type="line"/>
      <point x="54" y="475" type="line"/>
      <point x="67" y="483" type="line"/>
      <point x="147" y="346" type="line"/>
      <point x="228" y="483" type="line"/>
      <point x="241" y="475" type="line"/>
    </contour>
  </outline>
</glyph>
<glyph name="Oslash" format="1">
  <advance width="447"/>
  <unicode hex="00D8"/>
  <outline>
    <contour>
      <point x="398" y="751" type="line"/>
      <point x="357" y="653" type="line"/>
      <point x="395" y="585"/>
      <point x="411" y="482"/>
      <point x="411" y="363" type="curve" smooth="yes"/>
      <point x="411" y="146"/>
      <point x="358" y="-12"/>
      <point x="225" y="-12" type="curve" smooth="yes"/>
      <point x="172" y="-12"/>
      <point x="133" y="11"/>
      <point x="104" y="52" type="curve"/>
      <point x="71" y="-27" type="line"/>
      <point x="53" y="-20" type="line"/>
      <point x="92" y="72" type="line"/>
      <point x="55" y="139"/>
      <point x="40" y="242"/>
      <point x="40" y="363" type="curve" smooth="yes"/>
      <point x="40" y="579"/>
      <point x="88" y="742"/>
      <point x="225" y="742" type="curve" smooth="yes"/>
      <point x="276" y="742"/>
      <point x="315" y="717"/>
      <point x="344" y="673" type="curve"/>
      <point x="380" y="758" type="line"/>
    </contour>
    <contour>
      <point x="336" y="653" type="line"/>
      <point x="309" y="699"/>
      <point x="273" y="725"/>
      <point x="225" y="725" type="curve" smooth="yes"/>
      <point x="103" y="725"/>
      <point x="59" y="567"/>
      <point x="59" y="363" type="curve" smooth="yes"/>
      <point x="59" y="254"/>
      <point x="73" y="154"/>
      <point x="102" y="96" type="curve"/>
    </contour>
    <contour>
      <point x="392" y="363" type="curve" smooth="yes"/>
      <point x="392" y="470"/>
      <point x="378" y="565"/>
      <point x="347" y="631" type="curve"/>
      <point x="113" y="74" type="line"/>
      <point x="139" y="30"/>
      <point x="176" y="5"/>
      <point x="225" y="5" type="curve" smooth="yes"/>
      <point x="345" y="5"/>
      <point x="392" y="159"/>
    </contour>
  </outline>
</glyph>
<glyph name="Thorn" format="1">
  <advance width="335"/>
  <unicode hex="00DE"/>
  <outline>
    <contour>
      <point x="311" y="384" type="curve" smooth="yes"/>
      <point x="311" y="273"/>
      <point x="237" y="178"/>
      <point x="110" y="178" type="curve" smooth="yes"/>
      <point x="80" y="178" type="line"/>
      <point x="80" y="0" type="line"/>
      <point x="61" y="0" type="line"/>
      <point x="61" y="730" type="line"/>
      <point x="80" y="730" type="line"/>
      <point x="80" y="583" type="line"/>
      <point x="113" y="583" type="line" smooth="yes"/>
      <point x="228" y="583"/>
      <point x="311" y="520"/>
    </contour>
    <contour>
      <point x="292" y="384" type="curve" smooth="yes"/>
      <point x="292" y="509"/>
      <point x="221" y="566"/>
      <point x="113" y="566" type="curve" smooth="yes"/>
      <point x="80" y="566" type="line"/>
      <point x="80" y="195" type="line"/>
      <point x="110" y="195" type="line" smooth="yes"/>
      <point x="225" y="195"/>
      <point x="292" y="276"/>
    </contour>
  </outline>
</glyph>
<glyph name="germandbls" format="1">
  <advance width="275"/>
  <unicode hex="00DF"/>
  <outline>
    <contour>
      <point x="255" y="166" type="curve" smooth="yes"/>
      <point x="255" y="52"/>
      <point x="215" y="-12"/>
      <point x="162" y="-12" type="curve" smooth="yes"/>
      <point x="140" y="-12"/>
      <point x="121" y="-3"/>
      <point x="108" y="12" type="curve"/>
      <point x="119" y="26" type="line"/>
      <point x="129" y="14"/>
      <point x="143" y="5"/>
      <point x="162" y="5" type="curve" smooth="yes"/>
      <point x="208" y="5"/>
      <point x="237" y="73"/>
      <point x="237" y="165" type="curve" smooth="yes"/>
      <point x="237" y="305"/>
      <point x="191" y="413"/>
      <point x="117" y="413" type="curve" smooth="yes"/>
      <point x="111" y="413" type="line"/>
      <point x="111" y="433" type="line"/>
      <point x="120" y="433" type="line" smooth="yes"/>
      <point x="171" y="433"/>
      <point x="212" y="498"/>
      <point x="212" y="588" type="curve" smooth="yes"/>
      <point x="212" y="671"/>
      <point x="179" y="725"/>
      <point x="134" y="725" type="curve" smooth="yes"/>
      <point x="87" y="725"/>
      <point x="61" y="669"/>
      <point x="61" y="582" type="curve" smooth="yes"/>
      <point x="61" y="0" type="line"/>
      <point x="43" y="0" type="line"/>
      <point x="43" y="582" type="line" smooth="yes"/>
      <point x="43" y="690"/>
      <point x="80" y="742"/>
      <point x="134" y="742" type="curve" smooth="yes"/>
      <point x="186" y="742"/>
      <point x="229" y="686"/>
      <point x="229" y="588" type="curve" smooth="yes"/>
      <point x="229" y="492"/>
      <point x="183" y="430"/>
      <point x="145" y="424" type="curve"/>
      <point x="188" y="415"/>
      <point x="255" y="342"/>
    </contour>
  </outline>
</glyph>
<glyph name="ae" format="1">
  <advance width="491"/>
  <unicode hex="00E6"/>
  <outline>
    <contour>
      <point x="449" y="57" type="line"/>
      <point x="432" y="16"/>
      <point x="400" y="-12"/>
      <point x="353" y="-12" type="curve" smooth="yes"/>
      <point x="301" y="-12"/>
      <point x="269" y="15"/>
      <point x="251" y="60" type="curve"/>
      <point x="221" y="21"/>
      <point x="192" y="-8"/>
      <point x="134" y="-8" type="curve" smooth="yes"/>
      <point x="83" y="-8"/>
      <point x="37" y="26"/>
      <point x="37" y="109" type="curve" smooth="yes"/>
      <point x="37" y="193"/>
      <point x="109" y="244"/>
      <point x="202" y="244" type="curve" smooth="yes"/>
      <point x="230" y="244" type="line"/>
      <point x="230" y="295" type="line" smooth="yes"/>
      <point x="230" y="360"/>
      <point x="213" y="392"/>
      <point x="157" y="392" type="curve" smooth="yes"/>
      <point x="123" y="392"/>
      <point x="91" y="378"/>
      <point x="59" y="356" type="curve"/>
      <point x="52" y="371" type="line"/>
      <point x="84" y="392"/>
      <point x="119" y="409"/>
      <point x="161" y="409" type="curve" smooth="yes"/>
      <point x="215" y="409"/>
      <point x="250" y="380"/>
      <point x="245" y="307" type="curve"/>
      <point x="254" y="373"/>
      <point x="297" y="408"/>
      <point x="347" y="408" type="curve" smooth="yes"/>
      <point x="445" y="408"/>
      <point x="465" y="289"/>
      <point x="465" y="217" type="curve" smooth="yes"/>
      <point x="465" y="203" type="line"/>
      <point x="248" y="203" type="line"/>
      <point x="247" y="98"/>
      <point x="267" y="4"/>
      <point x="353" y="4" type="curve" smooth="yes"/>
      <point x="394" y="4"/>
      <point x="422" y="32"/>
      <point x="434" y="64" type="curve"/>
    </contour>
    <contour>
      <point x="446" y="220" type="line"/>
      <point x="446" y="230" type="line" smooth="yes"/>
      <point x="446" y="295"/>
      <point x="428" y="392"/>
      <point x="347" y="392" type="curve" smooth="yes"/>
      <point x="273" y="392"/>
      <point x="249" y="306"/>
      <point x="249" y="220" type="curve"/>
    </contour>
    <contour>
      <point x="245" y="75" type="curve"/>
      <point x="234" y="110"/>
      <point x="230" y="152"/>
      <point x="230" y="197" type="curve" smooth="yes"/>
      <point x="230" y="207"/>
      <point x="230" y="217"/>
      <point x="231" y="227" type="curve"/>
      <point x="230" y="227" type="line"/>
      <point x="202" y="227" type="line" smooth="yes"/>
      <point x="106" y="227"/>
      <point x="54" y="175"/>
      <point x="54" y="110" type="curve" smooth="yes"/>
      <point x="54" y="40"/>
      <point x="89" y="9"/>
      <point x="133" y="9" type="curve" smooth="yes"/>
      <point x="175" y="9"/>
      <point x="206" y="22"/>
    </contour>
  </outline>
</glyph>
<glyph name="ccedilla" format="1">
  <advance width="261"/>
  <unicode hex="00E7"/>
  <outline>
    <contour>
      <point x="136" y="-11" type="line"/>
      <point x="53" y="-2"/>
      <point x="28" y="88"/>
      <point x="28" y="197" type="curve" smooth="yes"/>
      <point x="28" y="314"/>
      <point x="57" y="408"/>
      <point x="145" y="408" type="curve" smooth="yes"/>
      <point x="203" y="408"/>
      <point x="228" y="366"/>
      <point x="238" y="332" type="curve"/>
      <point x="223" y="326" type="line"/>
      <point x="207" y="372"/>
      <point x="180" y="392"/>
      <point x="145" y="392" type="curve" smooth="yes"/>
      <point x="67" y="392"/>
      <point x="46" y="299"/>
      <point x="46" y="197" type="curve" smooth="yes"/>
      <point x="46" y="98"/>
      <point x="65" y="4"/>
      <point x="151" y="4" type="curve" smooth="yes"/>
      <point x="192" y="4"/>
      <point x="220" y="32"/>
      <point x="232" y="64" type="curve"/>
      <point x="247" y="57" type="line"/>
      <point x="230" y="17"/>
      <point x="199" y="-11"/>
      <point x="153" y="-12" type="curve"/>
      <point x="134" y="-54" type="line"/>
      <point x="138" y="-53"/>
      <point x="145" y="-51"/>
      <point x="153" y="-51" type="curve" smooth="yes"/>
      <point x="174" y="-51"/>
      <point x="205" y="-65"/>
      <point x="205" y="-109" type="curve" smooth="yes"/>
      <point x="205" y="-159"/>
      <point x="178" y="-179"/>
      <point x="148" y="-179" type="curve" smooth="yes"/>
      <point x="127" y="-179"/>
      <point x="104" y="-164"/>
      <point x="88" y="-142" type="curve"/>
      <point x="99" y="-131" type="line"/>
      <point x="113" y="-150"/>
      <point x="130" y="-163"/>
      <point x="148" y="-163" type="curve" smooth="yes"/>
      <point x="173" y="-163"/>
      <point x="189" y="-146"/>
      <point x="189" y="-110" type="curve" smooth="yes"/>
      <point x="189" y="-86"/>
      <point x="177" y="-67"/>
      <point x="152" y="-67" type="curve" smooth="yes"/>
      <point x="139" y="-67"/>
      <point x="127" y="-71"/>
      <point x="116" y="-74" type="curve"/>
      <point x="113" y="-65" type="line"/>
    </contour>
  </outline>
</glyph>
<glyph name="eth" format="1">
  <advance width="335"/>
  <unicode hex="00F0"/>
  <outline>
    <contour>
      <point x="302" y="235" type="curve" smooth="yes"/>
      <point x="302" y="89"/>
      <point x="257" y="-12"/>
      <point x="166" y="-12" type="curve" smooth="yes"/>
      <point x="86" y="-12"/>
      <point x="33" y="85"/>
      <point x="33" y="220" type="curve" smooth="yes"/>
      <point x="33" y="340"/>
      <point x="77" y="445"/>
      <point x="170" y="445" type="curve" smooth="yes"/>
      <point x="217" y="445"/>
      <point x="239" y="417"/>
      <point x="266" y="386" type="curve"/>
      <point x="204" y="593" type="line"/>
      <point x="97" y="550" type="line"/>
      <point x="90" y="567" type="line"/>
      <point x="199" y="611" type="line"/>
      <point x="163" y="730" type="line"/>
      <point x="180" y="730" type="line"/>
      <point x="214" y="617" type="line"/>
      <point x="292" y="649" type="line"/>
      <point x="298" y="632" type="line"/>
      <point x="219" y="600" type="line"/>
      <point x="265" y="450" type="line" smooth="yes"/>
      <point x="282" y="393"/>
      <point x="302" y="300"/>
    </contour>
    <contour>
      <point x="285" y="225" type="curve" smooth="yes"/>
      <point x="285" y="321"/>
      <point x="253" y="429"/>
      <point x="169" y="429" type="curve" smooth="yes"/>
      <point x="79" y="429"/>
      <point x="50" y="322"/>
      <point x="50" y="218" type="curve" smooth="yes"/>
      <point x="50" y="93"/>
      <point x="95" y="4"/>
      <point x="166" y="4" type="curve" smooth="yes"/>
      <point x="237" y="4"/>
      <point x="285" y="84"/>
    </contour>
  </outline>
</glyph>
<glyph name="oacute" format="1">
  <advance width="296"/>
  <unicode hex="00F3"/>
  <outline>
    <contour>
      <point x="145" y="-12" type="curve" smooth="yes"/>
      <point x="56" y="-12"/>
      <point x="28" y="83"/>
      <point x="28" y="198" type="curve" smooth="yes"/>
      <point x="28" y="311"/>
      <point x="56" y="408"/>
      <point x="145" y="408" type="curve" smooth="yes"/>
      <point x="235" y="408"/>
      <point x="263" y="311"/>
      <point x="263" y="198" type="curve" smooth="yes"/>
      <point x="263" y="83"/>
      <point x="235" y="-12"/>
    </contour>
    <contour>
      <point x="145" y="392" type="curve" smooth="yes"/>
      <point x="66" y="392"/>
      <point x="46" y="299"/>
      <point x="46" y="198" type="curve" smooth="yes"/>
      <point x="46" y="95"/>
      <point x="66" y="4"/>
      <point x="145" y="4" type="curve" smooth="yes"/>
      <point x="226" y="4"/>
      <point x="245" y="95"/>
      <point x="245" y="198" type="curve" smooth="yes"/>
      <point x="245" y="299"/>
      <point x="226" y="392"/>
    </contour>
    <component base="acute" xOffset="-51"/>
  </outline>
</glyph>
<glyph name="odieresis" format="1">
  <advance width="296"/>
  <unicode hex="00F6"/>
  <outline>
    <contour>
      <point x="145" y="-12" type="curve" smooth="yes"/>
      <point x="56" y="-12"/>
      <point x="28" y="83"/>
      <point x="28" y="198" type="curve" smooth="yes"/>
      <point x="28" y="311"/>
      <point x="56" y="408"/>
      <point x="145" y="408" type="curve" smooth="yes"/>
      <point x="235" y="408"/>
      <point x="263" y="311"/>
      <point x="263" y="198" type="curve" smooth="yes"/>
      <point x="263" y="83"/>
      <point x="235" y="-12"/>
    </contour>
    <contour>
      <point x="145" y="392" type="curve" smooth="yes"/>
      <point x="66" y="392"/>
      <point x="46" y="299"/>
      <point x="46" y="198" type="curve" smooth="yes"/>
      <point x="46" y="95"/>
      <point x="66" y="4"/>
      <point x="145" y="4" type="curve" smooth="yes"/>
      <point x="226" y="4"/>
      <point x="245" y="95"/>
      <point x="245" y="198" type="curve" smooth="yes"/>
      <point x="245" y="299"/>
      <point x="226" y="392"/>
    </contour>
    <component base="dieresis" xOffset="-63"/>
  </outline>
</glyph>
<glyph name="oslash" format="1">
  <advance width="297"/>
  <unicode hex="00F8"/>
  <outline>
    <contour>
      <point x="279" y="404" type="line"/>
      <point x="279" y="404"/>
      <point x="255" y="364"/>
      <point x="241" y="339" type="curve"/>
      <point x="256" y="301"/>
      <point x="263" y="251"/>
      <point x="263" y="198" type="curve" smooth="yes"/>
      <point x="263" y="83"/>
      <point x="235" y="-12"/>
      <point x="145" y="-12" type="curve" smooth="yes"/>
      <point x="107" y="-12"/>
      <point x="80" y="5"/>
      <point x="62" y="34" type="curve"/>
      <point x="51" y="15"/>
      <point x="34" y="-14"/>
      <point x="34" y="-14" type="curve"/>
      <point x="20" y="-5" type="line"/>
      <point x="52" y="51" type="line"/>
      <point x="35" y="89"/>
      <point x="28" y="141"/>
      <point x="28" y="198" type="curve" smooth="yes"/>
      <point x="28" y="311"/>
      <point x="56" y="408"/>
      <point x="145" y="408" type="curve" smooth="yes"/>
      <point x="185" y="408"/>
      <point x="213" y="389"/>
      <point x="232" y="357" type="curve"/>
      <point x="265" y="413" type="line"/>
    </contour>
    <contour>
      <point x="222" y="340" type="line"/>
      <point x="207" y="372"/>
      <point x="183" y="392"/>
      <point x="145" y="392" type="curve" smooth="yes"/>
      <point x="66" y="392"/>
      <point x="46" y="299"/>
      <point x="46" y="198" type="curve" smooth="yes"/>
      <point x="46" y="150"/>
      <point x="50" y="104"/>
      <point x="63" y="69" type="curve"/>
    </contour>
    <contour>
      <point x="245" y="198" type="curve" smooth="yes"/>
      <point x="245" y="243"/>
      <point x="241" y="286"/>
      <point x="230" y="320" type="curve"/>
      <point x="230" y="321"/>
      <point x="72" y="50"/>
      <point x="71" y="50" type="curve"/>
      <point x="87" y="22"/>
      <point x="110" y="4"/>
      <point x="145" y="4" type="curve" smooth="yes"/>
      <point x="226" y="4"/>
      <point x="245" y="95"/>
    </contour>
  </outline>
</glyph>
<glyph name="Lslash" format="1">
  <advance width="299"/>
  <unicode hex="0141"/>
  <outline>
    <contour>
      <point x="288" y="0" type="line"/>
      <point x="62" y="0" type="line"/>
      <point x="62" y="311" type="line"/>
      <point x="20" y="281" type="line"/>
      <point x="12" y="299" type="line"/>
      <point x="62" y="335" type="line"/>
      <point x="62" y="730" type="line"/>
      <point x="81" y="730" type="line"/>
      <point x="81" y="348" type="line"/>
      <point x="81" y="349"/>
      <point x="160" y="405"/>
      <point x="160" y="405" type="curve"/>
      <point x="168" y="387" type="line"/>
      <point x="168" y="387"/>
      <point x="81" y="325"/>
      <point x="81" y="324" type="curve" smooth="yes"/>
      <point x="81" y="19" type="line"/>
      <point x="288" y="19" type="line"/>
    </contour>
  </outline>
</glyph>
<glyph name="lslash" format="1">
  <advance width="151"/>
  <unicode hex="0142"/>
  <outline>
    <contour>
      <point x="150" y="352" type="line"/>
      <point x="88" y="321" type="line"/>
      <point x="88" y="0" type="line"/>
      <point x="66" y="0" type="line"/>
      <point x="66" y="310" type="line"/>
      <point x="18" y="286" type="line"/>
      <point x="10" y="304" type="line"/>
      <point x="66" y="332" type="line"/>
      <point x="66" y="730" type="line"/>
      <point x="88" y="730" type="line"/>
      <point x="88" y="343" type="line"/>
      <point x="142" y="370" type="line"/>
    </contour>
  </outline>
</glyph>
<glyph name="OE" format="1">
  <advance width="659"/>
  <unicode hex="0152"/>
  <outline>
    <contour>
      <point x="633" y="0" type="line"/>
      <point x="392" y="0" type="line"/>
      <point x="392" y="191" type="line"/>
      <point x="375" y="60"/>
      <point x="313" y="-12"/>
      <point x="225" y="-12" type="curve" smooth="yes"/>
      <point x="88" y="-12"/>
      <point x="40" y="146"/>
      <point x="40" y="363" type="curve" smooth="yes"/>
      <point x="40" y="579"/>
      <point x="88" y="742"/>
      <point x="225" y="742" type="curve" smooth="yes"/>
      <point x="312" y="742"/>
      <point x="373" y="668"/>
      <point x="392" y="531" type="curve"/>
      <point x="392" y="730" type="line"/>
      <point x="624" y="730" type="line"/>
      <point x="624" y="713" type="line"/>
      <point x="411" y="713" type="line"/>
      <point x="411" y="380" type="line"/>
      <point x="597" y="380" type="line"/>
      <point x="597" y="361" type="line"/>
      <point x="411" y="361" type="line"/>
      <point x="411" y="17" type="line"/>
      <point x="633" y="17" type="line"/>
    </contour>
    <contour>
      <point x="392" y="363" type="curve" smooth="yes"/>
      <point x="392" y="567"/>
      <point x="341" y="725"/>
      <point x="225" y="725" type="curve" smooth="yes"/>
      <point x="103" y="725"/>
      <point x="59" y="567"/>
      <point x="59" y="363" type="curve" smooth="yes"/>
      <point x="59" y="159"/>
      <point x="103" y="5"/>
      <point x="225" y="5" type="curve" smooth="yes"/>
      <point x="345" y="5"/>
      <point x="392" y="159"/>
    </contour>
  </outline>
</glyph>
<glyph name="oe" format="1">
  <advance width="506"/>
  <unicode hex="0153"/>
  <outline>
    <contour>
      <point x="464" y="57" type="line"/>
      <point x="447" y="16"/>
      <point x="415" y="-12"/>
      <point x="368" y="-12" type="curve" smooth="yes"/>
      <point x="302" y="-12"/>
      <point x="263" y="35"/>
      <point x="254" y="109" type="curve"/>
      <point x="244" y="35"/>
      <point x="207" y="-12"/>
      <point x="145" y="-12" type="curve" smooth="yes"/>
      <point x="56" y="-12"/>
      <point x="28" y="83"/>
      <point x="28" y="198" type="curve" smooth="yes"/>
      <point x="28" y="311"/>
      <point x="56" y="408"/>
      <point x="145" y="408" type="curve" smooth="yes"/>
      <point x="207" y="408"/>
      <point x="246" y="358"/>
      <point x="254" y="286" type="curve"/>
      <point x="262" y="359"/>
      <point x="301" y="408"/>
      <point x="362" y="408" type="curve" smooth="yes"/>
      <point x="460" y="408"/>
      <point x="480" y="289"/>
      <point x="480" y="217" type="curve" smooth="yes"/>
      <point x="480" y="203" type="line"/>
      <point x="263" y="203" type="line"/>
      <point x="263" y="203"/>
      <point x="263" y="195"/>
      <point x="263" y="192" type="curve" smooth="yes"/>
      <point x="263" y="91"/>
      <point x="285" y="4"/>
      <point x="368" y="4" type="curve" smooth="yes"/>
      <point x="409" y="4"/>
      <point x="437" y="32"/>
      <point x="449" y="64" type="curve"/>
    </contour>
    <contour>
      <point x="461" y="220" type="line"/>
      <point x="461" y="230" type="line" smooth="yes"/>
      <point x="461" y="295"/>
      <point x="443" y="392"/>
      <point x="362" y="392" type="curve" smooth="yes"/>
      <point x="288" y="392"/>
      <point x="264" y="306"/>
      <point x="264" y="220" type="curve"/>
    </contour>
    <contour>
      <point x="145" y="392" type="curve" smooth="yes"/>
      <point x="66" y="392"/>
      <point x="46" y="299"/>
      <point x="46" y="198" type="curve" smooth="yes"/>
      <point x="46" y="95"/>
      <point x="66" y="4"/>
      <point x="145" y="4" type="curve" smooth="yes"/>
      <point x="226" y="4"/>
      <point x="245" y="95"/>
      <point x="245" y="198" type="curve" smooth="yes"/>
      <point x="245" y="299"/>
      <point x="226" y="392"/>
    </contour>
  </outline>
</glyph>
<glyph name="florin" format="1">
  <advance width="201"/>
  <unicode hex="0192"/>
  <outline>
    <contour>
      <point x="100" y="398" type="line"/>
      <point x="160" y="398" type="line"/>
      <point x="158" y="381" type="line"/>
      <point x="99" y="381" type="line"/>
      <point x="58" y="-90" type="line" smooth="yes"/>
      <point x="52" y="-163"/>
      <point x="21" y="-179"/>
      <point x="-36" y="-179" type="curve" smooth="yes"/>
      <point x="-46" y="-179" type="line"/>
      <point x="-44" y="-162" type="line"/>
      <point x="-34" y="-162" type="line" smooth="yes"/>
      <point x="27" y="-162"/>
      <point x="36" y="-137"/>
      <point x="40" y="-90" type="curve" smooth="yes"/>
      <point x="81" y="381" type="line"/>
      <point x="35" y="381" type="line"/>
      <point x="37" y="398" type="line"/>
      <point x="82" y="398" type="line"/>
      <point x="103" y="640" type="line" smooth="yes"/>
      <point x="108" y="701"/>
      <point x="140" y="730"/>
      <point x="195" y="730" type="curve" smooth="yes"/>
      <point x="206" y="730" type="line"/>
      <point x="204" y="713" type="line"/>
      <point x="195" y="713" type="line" smooth="yes"/>
      <point x="134" y="713"/>
      <point x="124" y="674"/>
      <point x="121" y="639" type="curve" smooth="yes"/>
    </contour>
  </outline>
</glyph>
<glyph name="circumflex" format="1">
  <advance width="410"/>
  <unicode hex="02C6"/>
  <outline>
    <contour>
      <point x="210" y="608" type="line"/>
      <point x="271" y="484" type="line"/>
      <point x="253" y="484" type="line"/>
      <point x="205" y="584" type="line"/>
      <point x="157" y="484" type="line"/>
      <point x="139" y="484" type="line"/>
      <point x="200" y="608" type="line"/>
    </contour>
  </outline>
</glyph>
<glyph name="caron" format="1">
  <advance width="410"/>
  <unicode hex="02C7"/>
  <outline>
    <contour>
      <point x="210" y="484" type="line"/>
      <point x="200" y="484" type="line"/>
      <point x="139" y="608" type="line"/>
      <point x="153" y="608" type="line"/>
      <point x="205" y="511" type="line"/>
      <point x="257" y="608" type="line"/>
      <point x="271" y="608" type="line"/>
    </contour>
  </outline>
</glyph>
<glyph name="breve" format="1">
  <advance width="410"/>
  <unicode hex="02D8"/>
  <outline>
    <contour>
      <point x="280" y="607" type="line"/>
      <point x="280" y="528"/>
      <point x="246" y="480"/>
      <point x="205" y="480" type="curve" smooth="yes"/>
      <point x="165" y="480"/>
      <point x="130" y="528"/>
      <point x="130" y="607" type="curve"/>
      <point x="147" y="607" type="line"/>
      <point x="147" y="542"/>
      <point x="173" y="497"/>
      <point x="205" y="497" type="curve" smooth="yes"/>
      <point x="238" y="497"/>
      <point x="263" y="542"/>
      <point x="263" y="607" type="curve"/>
    </contour>
  </outline>
</glyph>
<glyph name="dotaccent" format="1">
  <advance width="410"/>
  <unicode hex="02D9"/>
  <outline>
    <contour>
      <point x="214" y="494" type="line"/>
      <point x="196" y="494" type="line"/>
      <point x="196" y="563" type="line"/>
      <point x="214" y="563" type="line"/>
    </contour>
  </outline>
</glyph>
<glyph name="ring" format="1">
  <advance width="410"/>
  <unicode hex="02DA"/>
  <outline>
    <contour>
      <point x="148" y="569" type="curve" smooth="yes"/>
      <point x="148" y="622"/>
      <point x="169" y="661"/>
      <point x="205" y="661" type="curve" smooth="yes"/>
      <point x="241" y="661"/>
      <point x="262" y="622"/>
      <point x="262" y="569" type="curve" smooth="yes"/>
      <point x="262" y="516"/>
      <point x="241" y="477"/>
      <point x="205" y="477" type="curve" smooth="yes"/>
      <point x="169" y="477"/>
      <point x="148" y="516"/>
    </contour>
    <contour>
      <point x="245" y="569" type="curve" smooth="yes"/>
      <point x="245" y="610"/>
      <point x="231" y="644"/>
      <point x="205" y="644" type="curve" smooth="yes"/>
      <point x="179" y="644"/>
      <point x="165" y="610"/>
      <point x="165" y="569" type="curve" smooth="yes"/>
      <point x="165" y="528"/>
      <point x="179" y="494"/>
      <point x="205" y="494" type="curve" smooth="yes"/>
      <point x="231" y="494"/>
      <point x="245" y="528"/>
    </contour>
  </outline>
</glyph>
<glyph name="ogonek" format="1">
  <advance width="410"/>
  <unicode hex="02DB"/>
  <outline>
    <contour>
      <point x="267" y="-141" type="line"/>
      <point x="250" y="-164"/>
      <point x="225" y="-179"/>
      <point x="204" y="-179" type="curve" smooth="yes"/>
      <point x="168" y="-179"/>
      <point x="143" y="-151"/>
      <point x="143" y="-100" type="curve" smooth="yes"/>
      <point x="143" y="-64"/>
      <point x="162" y="-20"/>
      <point x="199" y="12" type="curve"/>
      <point x="221" y="12" type="line"/>
      <point x="177" y="-22"/>
      <point x="161" y="-66"/>
      <point x="161" y="-99" type="curve" smooth="yes"/>
      <point x="161" y="-139"/>
      <point x="176" y="-160"/>
      <point x="204" y="-160" type="curve" smooth="yes"/>
      <point x="222" y="-160"/>
      <point x="240" y="-148"/>
      <point x="256" y="-127" type="curve"/>
    </contour>
  </outline>
</glyph>
<glyph name="tilde" format="1">
  <advance width="410"/>
  <unicode hex="02DC"/>
  <outline>
    <contour>
      <point x="124" y="484" type="line"/>
      <point x="124" y="537"/>
      <point x="143" y="576"/>
      <point x="169" y="576" type="curve" smooth="yes"/>
      <point x="209" y="576"/>
      <point x="218" y="497"/>
      <point x="243" y="497" type="curve" smooth="yes"/>
      <point x="260" y="497"/>
      <point x="270" y="525"/>
      <point x="269" y="573" type="curve"/>
      <point x="285" y="573" type="line"/>
      <point x="285" y="507"/>
      <point x="266" y="479"/>
      <point x="243" y="479" type="curve" smooth="yes"/>
      <point x="204" y="479"/>
      <point x="197" y="558"/>
      <point x="169" y="558" type="curve" smooth="yes"/>
      <point x="148" y="558"/>
      <point x="142" y="523"/>
      <point x="140" y="484" type="curve"/>
    </contour>
  </outline>
</glyph>
<glyph name="hungarumlaut" format="1">
  <advance width="410"/>
  <unicode hex="02DD"/>
  <outline>
    <contour>
      <point x="277" y="614" type="line"/>
      <point x="225" y="484" type="line"/>
      <point x="212" y="484" type="line"/>
      <point x="258" y="614" type="line"/>
    </contour>
    <contour>
      <point x="197" y="614" type="line"/>
      <point x="145" y="484" type="line"/>
      <point x="132" y="484" type="line"/>
      <point x="178" y="614" type="line"/>
    </contour>
  </outline>
</glyph>
<glyph name="endash" format="1">
  <advance width="298"/>
  <unicode hex="2013"/>
  <outline>
    <contour>
      <point x="270" y="219" type="line"/>
      <point x="27" y="219" type="line"/>
      <point x="27" y="238" type="line"/>
      <point x="270" y="238" type="line"/>
    </contour>
  </outline>
</glyph>
<glyph name="emdash" format="1">
  <advance width="560"/>
  <unicode hex="2014"/>
  <outline>
    <contour>
      <point x="533" y="219" type="line"/>
      <point x="27" y="219" type="line"/>
      <point x="27" y="238" type="line"/>
      <point x="533" y="238" type="line"/>
    </contour>
  </outline>
</glyph>
<glyph name="quoteleft" format="1">
  <advance width="105"/>
  <unicode hex="2018"/>
  <unicode hex="02BB"/>
  <outline>
    <contour>
      <point x="91" y="730" type="line"/>
      <point x="64" y="688"/>
      <point x="60" y="656"/>
      <point x="60" y="596" type="curve" smooth="yes"/>
      <point x="60" y="591" type="line"/>
      <point x="41" y="591" type="line"/>
      <point x="41" y="612" type="line" smooth="yes"/>
      <point x="41" y="651"/>
      <point x="51" y="696"/>
      <point x="73" y="730" type="curve"/>
    </contour>
  </outline>
</glyph>
<glyph name="quoteright" format="1">
  <advance width="110"/>
  <unicode hex="2019"/>
  <unicode hex="02BC"/>
  <outline>
    <contour>
      <point x="71" y="709" type="line" smooth="yes"/>
      <point x="71" y="670"/>
      <point x="61" y="625"/>
      <point x="39" y="591" type="curve"/>
      <point x="21" y="591" type="line"/>
      <point x="48" y="632"/>
      <point x="52" y="665"/>
      <point x="52" y="724" type="curve" smooth="yes"/>
      <point x="52" y="730" type="line"/>
      <point x="71" y="730" type="line"/>
    </contour>
  </outline>
</glyph>
<glyph name="quotedblleft" format="1">
  <advance width="188"/>
  <unicode hex="201C"/>
  <outline>
    <contour>
      <point x="174" y="730" type="line"/>
      <point x="148" y="688"/>
      <point x="143" y="656"/>
      <point x="143" y="596" type="curve" smooth="yes"/>
      <point x="143" y="591" type="line"/>
      <point x="124" y="591" type="line"/>
      <point x="124" y="612" type="line" smooth="yes"/>
      <point x="124" y="651"/>
      <point x="134" y="698"/>
      <point x="157" y="730" type="curve"/>
    </contour>
    <contour>
      <point x="90" y="730" type="line"/>
      <point x="63" y="688"/>
      <point x="60" y="656"/>
      <point x="60" y="596" type="curve" smooth="yes"/>
      <point x="60" y="591" type="line"/>
      <point x="41" y="591" type="line"/>
      <point x="41" y="612" type="line" smooth="yes"/>
      <point x="41" y="651"/>
      <point x="50" y="698"/>
      <point x="73" y="730" type="curve"/>
    </contour>
  </outline>
</glyph>
<glyph name="quotedblright" format="1">
  <advance width="188"/>
  <unicode hex="201D"/>
  <outline>
    <contour>
      <point x="154" y="709" type="line" smooth="yes"/>
      <point x="154" y="670"/>
      <point x="143" y="624"/>
      <point x="120" y="591" type="curve"/>
      <point x="103" y="591" type="line"/>
      <point x="130" y="632"/>
      <point x="135" y="665"/>
      <point x="135" y="724" type="curve" smooth="yes"/>
      <point x="135" y="730" type="line"/>
      <point x="154" y="730" type="line"/>
    </contour>
    <contour>
      <point x="71" y="709" type="line" smooth="yes"/>
      <point x="71" y="670"/>
      <point x="60" y="624"/>
      <point x="37" y="591" type="curve"/>
      <point x="20" y="591" type="line"/>
      <point x="47" y="632"/>
      <point x="52" y="665"/>
      <point x="52" y="724" type="curve" smooth="yes"/>
      <point x="52" y="730" type="line"/>
      <point x="71" y="730" type="line"/>
    </contour>
  </outline>
</glyph>
<glyph name="quotedblbase" format="1">
  <advance width="179"/>
  <unicode hex="201E"/>
  <outline>
    <contour>
      <point x="144" y="36" type="line" smooth="yes"/>
      <point x="144" y="-3"/>
      <point x="134" y="-45"/>
      <point x="112" y="-82" type="curve"/>
      <point x="96" y="-82" type="line"/>
      <point x="122" y="-38"/>
      <point x="125" y="-8"/>
      <point x="125" y="52" type="curve" smooth="yes"/>
      <point x="125" y="57" type="line"/>
      <point x="144" y="57" type="line"/>
    </contour>
    <contour>
      <point x="61" y="36" type="line" smooth="yes"/>
      <point x="61" y="-3"/>
      <point x="51" y="-45"/>
      <point x="29" y="-82" type="curve"/>
      <point x="12" y="-82" type="line"/>
      <point x="39" y="-38"/>
      <point x="42" y="-8"/>
      <point x="42" y="52" type="curve" smooth="yes"/>
      <point x="42" y="57" type="line"/>
      <point x="61" y="57" type="line"/>
    </contour>
  </outline>
</glyph>
<glyph name="dagger" format="1">
  <advance width="249"/>
  <unicode hex="2020"/>
  <outline>
    <contour>
      <point x="229" y="408" type="line"/>
      <point x="134" y="408" type="line"/>
      <point x="134" y="17" type="line"/>
      <point x="130" y="-179" type="line"/>
      <point x="119" y="-179" type="line"/>
      <point x="115" y="17" type="line"/>
      <point x="115" y="408" type="line"/>
      <point x="20" y="408" type="line"/>
      <point x="20" y="427" type="line"/>
      <point x="115" y="427" type="line"/>
      <point x="115" y="730" type="line"/>
      <point x="134" y="730" type="line"/>
      <point x="134" y="427" type="line"/>
      <point x="229" y="427" type="line"/>
    </contour>
  </outline>
</glyph>
<glyph name="daggerdbl" format="1">
  <advance width="274"/>
  <unicode hex="2021"/>
  <outline>
    <contour>
      <point x="243" y="5" type="line"/>
      <point x="148" y="5" type="line"/>
      <point x="148" y="-179" type="line"/>
      <point x="129" y="-179" type="line"/>
      <point x="129" y="5" type="line"/>
      <point x="33" y="5" type="line"/>
      <point x="33" y="22" type="line"/>
      <point x="129" y="22" type="line"/>
      <point x="129" y="104" type="line"/>
      <point x="135" y="276" type="line"/>
      <point x="129" y="443" type="line"/>
      <point x="129" y="525" type="line"/>
      <point x="33" y="525" type="line"/>
      <point x="33" y="542" type="line"/>
      <point x="129" y="542" type="line"/>
      <point x="129" y="730" type="line"/>
      <point x="148" y="730" type="line"/>
      <point x="148" y="542" type="line"/>
      <point x="243" y="542" type="line"/>
      <point x="243" y="525" type="line"/>
      <point x="148" y="525" type="line"/>
      <point x="148" y="443" type="line"/>
      <point x="142" y="276" type="line"/>
      <point x="148" y="104" type="line"/>
      <point x="148" y="22" type="line"/>
      <point x="243" y="22" type="line"/>
    </contour>
  </outline>
</glyph>
<glyph name="ellipsis" format="1">
  <advance width="297"/>
  <unicode hex="2026"/>
  <outline>
    <contour>
      <point x="260" y="0" type="line"/>
      <point x="241" y="0" type="line"/>
      <point x="241" y="84" type="line"/>
      <point x="260" y="84" type="line"/>
    </contour>
    <contour>
      <point x="158" y="0" type="line"/>
      <point x="139" y="0" type="line"/>
      <point x="139" y="84" type="line"/>
      <point x="158" y="84" type="line"/>
    </contour>
    <contour>
      <point x="56" y="0" type="line"/>
      <point x="37" y="0" type="line"/>
      <point x="37" y="84" type="line"/>
      <point x="56" y="84" type="line"/>
    </contour>
  </outline>
</glyph>
<glyph name="guilsinglleft" format="1">
  <advance width="116"/>
  <unicode hex="2039"/>
  <outline>
    <contour>
      <point x="96" y="330" type="line"/>
      <point x="96" y="307" type="line"/>
      <point x="27" y="205" type="line"/>
      <point x="92" y="105" type="line"/>
      <point x="92" y="80" type="line"/>
      <point x="12" y="194" type="line"/>
      <point x="12" y="216" type="line"/>
    </contour>
  </outline>
</glyph>
<glyph name="guilsinglright" format="1">
  <advance width="116"/>
  <unicode hex="203A"/>
  <outline>
    <contour>
      <point x="20" y="330" type="line"/>
      <point x="104" y="216" type="line"/>
      <point x="104" y="194" type="line"/>
      <point x="24" y="80" type="line"/>
      <point x="24" y="105" type="line"/>
      <point x="89" y="205" type="line"/>
      <point x="20" y="307" type="line"/>
    </contour>
  </outline>
</glyph>
<glyph name="fraction" format="1">
  <advance width="287"/>
  <unicode hex="2044"/>
  <outline>
    <contour>
      <point x="323" y="730" type="line"/>
      <point x="-19" y="0" type="line"/>
      <point x="-36" y="0" type="line"/>
      <point x="306" y="730" type="line"/>
    </contour>
  </outline>
</glyph>
<glyph name="Euro" format="1">
  <advance width="378"/>
  <unicode hex="20AC"/>
  <outline>
    <contour>
      <point x="355" y="58" type="line"/>
      <point x="333" y="23"/>
      <point x="297" y="-12"/>
      <point x="245" y="-12" type="curve" smooth="yes"/>
      <point x="126" y="-12"/>
      <point x="73" y="108"/>
      <point x="62" y="284" type="curve"/>
      <point x="2" y="284" type="line"/>
      <point x="2" y="304" type="line"/>
      <point x="61" y="304" type="line"/>
      <point x="61" y="323"/>
      <point x="60" y="342"/>
      <point x="60" y="362" type="curve" smooth="yes"/>
      <point x="60" y="379"/>
      <point x="60" y="395"/>
      <point x="61" y="410" type="curve"/>
      <point x="2" y="410" type="line"/>
      <point x="2" y="430" type="line"/>
      <point x="62" y="430" type="line"/>
      <point x="73" y="640"/>
      <point x="137" y="742"/>
      <point x="245" y="742" type="curve" smooth="yes"/>
      <point x="290" y="742"/>
      <point x="327" y="721"/>
      <point x="351" y="685" type="curve"/>
      <point x="336" y="673" type="line"/>
      <point x="315" y="707"/>
      <point x="284" y="725"/>
      <point x="245" y="725" type="curve" smooth="yes"/>
      <point x="146" y="725"/>
      <point x="91" y="620"/>
      <point x="81" y="430" type="curve"/>
      <point x="235" y="430" type="line"/>
      <point x="235" y="410" type="line"/>
      <point x="80" y="410" type="line"/>
      <point x="79" y="395"/>
      <point x="79" y="379"/>
      <point x="79" y="362" type="curve" smooth="yes"/>
      <point x="79" y="342"/>
      <point x="79" y="323"/>
      <point x="80" y="304" type="curve"/>
      <point x="235" y="304" type="line"/>
      <point x="235" y="284" type="line"/>
      <point x="81" y="284" type="line"/>
      <point x="93" y="114"/>
      <point x="143" y="5"/>
      <point x="245" y="5" type="curve" smooth="yes"/>
      <point x="289" y="5"/>
      <point x="320" y="34"/>
      <point x="340" y="68" type="curve"/>
    </contour>
  </outline>
</glyph>
<glyph name="trademark" format="1">
  <advance width="780"/>
  <unicode hex="2122"/>
  <outline>
    <contour>
      <point x="697" y="292" type="line"/>
      <point x="678" y="292" type="line"/>
      <point x="678" y="698" type="line"/>
      <point x="529" y="454" type="line"/>
      <point x="525" y="454" type="line"/>
      <point x="376" y="698" type="line"/>
      <point x="376" y="292" type="line"/>
      <point x="357" y="292" type="line"/>
      <point x="357" y="730" type="line"/>
      <point x="380" y="730" type="line"/>
      <point x="527" y="487" type="line"/>
      <point x="674" y="730" type="line"/>
      <point x="697" y="730" type="line"/>
    </contour>
    <contour>
      <point x="269" y="712" type="line"/>
      <point x="154" y="712" type="line"/>
      <point x="154" y="292" type="line"/>
      <point x="135" y="292" type="line"/>
      <point x="135" y="712" type="line"/>
      <point x="20" y="712" type="line"/>
      <point x="20" y="730" type="line"/>
      <point x="269" y="730" type="line"/>
    </contour>
  </outline>
</glyph>
<glyph name="minus" format="1">
  <advance width="296"/>
  <unicode hex="2212"/>
  <outline>
    <contour>
      <point x="274" y="322" type="line"/>
      <point x="22" y="322" type="line"/>
      <point x="22" y="339" type="line"/>
      <point x="274" y="339" type="line"/>
    </contour>
  </outline>
</glyph>
<glyph name="radical" format="1">
  <advance width="442"/>
  <unicode hex="221A"/>
  <outline>
    <contour>
      <point x="386" y="730" type="line"/>
      <point x="185" y="-30" type="line"/>
      <point x="182" y="-30" type="line"/>
      <point x="11" y="316" type="line"/>
      <point x="31" y="316" type="line"/>
      <point x="173" y="28" type="line"/>
      <point x="179" y="16" type="line"/>
      <point x="182" y="28" type="line"/>
      <point x="367" y="730" type="line"/>
    </contour>
  </outline>
</glyph>
<glyph name="bullet" format="1">
  <advance width="260"/>
  <outline>
    <contour>
      <point x="198" y="379" type="curve" smooth="yes"/>
      <point x="198" y="342"/>
      <point x="168" y="311"/>
      <point x="130" y="311" type="curve" smooth="yes"/>
      <point x="93" y="311"/>
      <point x="63" y="342"/>
      <point x="63" y="379" type="curve" smooth="yes"/>
      <point x="63" y="416"/>
      <point x="93" y="447"/>
      <point x="130" y="447" type="curve" smooth="yes"/>
      <point x="168" y="447"/>
      <point x="198" y="416"/>
    </contour>
  </outline>
</glyph>
<glyph name="f_i" format="1">
  <advance width="260"/>
  <outline>
    <contour>
      <point x="205" y="494" type="line"/>
      <point x="187" y="494" type="line"/>
      <point x="187" y="563" type="line"/>
      <point x="205" y="563" type="line"/>
    </contour>
    <component base="f"/>
    <component base="dotlessi" xOffset="132"/>
  </outline>
</glyph>
<glyph name="macron" format="1">
  <advance width="410"/>
  <outline>
    <contour>
      <point x="283" y="500" type="line"/>
      <point x="127" y="500" type="line"/>
      <point x="127" y="520" type="line"/>
      <point x="283" y="520" type="line"/>
    </contour>
  </outline>
</glyph>
<glyph name="onesuperior" format="1">
  <advance width="176"/>
  <outline>
    <contour>
      <point x="92" y="355" type="line"/>
      <point x="92" y="684" type="line"/>
      <point x="88" y="668"/>
      <point x="77" y="648"/>
      <point x="53" y="632" type="curve"/>
      <point x="53" y="648" type="line"/>
      <point x="72" y="659"/>
      <point x="90" y="702"/>
      <point x="94" y="730" type="curve"/>
      <point x="109" y="730" type="line"/>
      <point x="109" y="355" type="line"/>
    </contour>
  </outline>
</glyph>
<glyph name="threesuperior" format="1">
  <advance width="256"/>
  <outline>
    <contour>
      <point x="101" y="561" type="line"/>
      <point x="110" y="561" type="line" smooth="yes"/>
      <point x="154" y="561"/>
      <point x="177" y="602"/>
      <point x="177" y="651" type="curve" smooth="yes"/>
      <point x="177" y="698"/>
      <point x="154" y="724"/>
      <point x="127" y="724" type="curve" smooth="yes"/>
      <point x="106" y="724"/>
      <point x="91" y="714"/>
      <point x="78" y="683" type="curve"/>
      <point x="62" y="691" type="line"/>
      <point x="77" y="727"/>
      <point x="102" y="741"/>
      <point x="127" y="741" type="curve" smooth="yes"/>
      <point x="162" y="741"/>
      <point x="194" y="710"/>
      <point x="194" y="652" type="curve" smooth="yes"/>
      <point x="194" y="604"/>
      <point x="176" y="569"/>
      <point x="145" y="554" type="curve"/>
      <point x="184" y="539"/>
      <point x="204" y="507"/>
      <point x="204" y="449" type="curve" smooth="yes"/>
      <point x="204" y="387"/>
      <point x="164" y="353"/>
      <point x="128" y="353" type="curve" smooth="yes"/>
      <point x="105" y="353"/>
      <point x="87" y="360"/>
      <point x="60" y="385" type="curve"/>
      <point x="71" y="399" type="line"/>
      <point x="94" y="376"/>
      <point x="112" y="370"/>
      <point x="129" y="370" type="curve" smooth="yes"/>
      <point x="156" y="370"/>
      <point x="186" y="399"/>
      <point x="186" y="450" type="curve" smooth="yes"/>
      <point x="186" y="500"/>
      <point x="169" y="545"/>
      <point x="101" y="545" type="curve"/>
    </contour>
  </outline>
</glyph>
